<?xml version="1.0" encoding="UTF-8" standalone="no"?>
<svg
   xmlns:dc="http://purl.org/dc/elements/1.1/"
   xmlns:cc="http://creativecommons.org/ns#"
   xmlns:rdf="http://www.w3.org/1999/02/22-rdf-syntax-ns#"
   xmlns:svg="http://www.w3.org/2000/svg"
   xmlns="http://www.w3.org/2000/svg"
   viewBox="0 0 1333.3333 1333.3867"
   height="1333.3867"
   width="1333.3333"
   xml:space="preserve"
   id="svg2"
   version="1.1"><metadata
     id="metadata8"><rdf:RDF><cc:Work
         rdf:about=""><dc:format>image/svg+xml</dc:format><dc:type
           rdf:resource="http://purl.org/dc/dcmitype/StillImage" /></cc:Work></rdf:RDF></metadata><defs
     id="defs6" /><g
     transform="matrix(1.3333333,0,0,-1.3333333,0,1333.3867)"
     id="g10"><g
       transform="scale(0.1)"
       id="g12"><path
         id="path14"
         style="fill:#d69d32;fill-opacity:1;fill-rule:nonzero;stroke:none"
         d="M 0,0 H 10000 V 10000.4 H 0 Z" /><path
         id="path16"
         style="fill:#ffffff;fill-opacity:1;fill-rule:nonzero;stroke:none"
         d="m 1870.21,7422.63 h -556.13 v 95.16 c 0,157.54 56.57,217.07 142.74,309.25 L 1673.83,8056 c 175.44,187.34 214.16,306.28 214.16,508.61 v 196.26 c 0,288.37 -139.82,425.28 -443.13,425.28 -297.3,0 -449.008,-157.66 -449.008,-440.21 v -243.71 h 309.318 v 252.75 c 0,121.79 59.47,157.6 130.89,157.6 65.3,0 121.86,-26.82 121.86,-151.71 v -166.52 c 0,-166.64 -14.93,-232.07 -124.89,-347.97 L 1242.6,8044.17 C 1058.36,7847.8 989.902,7716.96 989.902,7517.79 v -371.76 h 880.308 v 276.6" /><path
         id="path18"
         style="fill:#ffffff;fill-opacity:1;fill-rule:nonzero;stroke:none"
         d="m 3988.74,1502.97 v -140.6 c -0.12,-0.97 -0.49,-2.13 -0.49,-3.16 0,-1.21 0.37,-2.31 0.49,-3.34 1.46,-34.77 29.86,-62.5 64.87,-63.17 0.42,0 0.79,-0.24 1.28,-0.24 0.48,0 1.09,0.24 1.63,0.24 h 1649.56 c 0.42,0 0.91,-0.24 1.39,-0.24 0.49,0 0.98,0.24 1.46,0.24 36.04,0.67 64.81,29.98 65.05,66.02 0,0.13 0.24,0.25 0.24,0.49 0,0 -0.24,0.24 -0.24,0.48 v 159.12 c 928.61,304.4 1624.25,1057.03 1777.24,1974.22 0.36,1.95 0.6,3.77 0.91,5.46 0.55,3.22 0.91,6.13 0.91,9.23 0,36.9 -29.74,66.69 -66.69,66.69 H 2228.98 c -37.08,0 -66.88,-29.79 -66.88,-66.69 l 3.47,-29.98 C 2326.26,2551.8 3041.01,1794.99 3988.74,1502.97" /><path
         id="path20"
         style="fill:#ffffff;fill-opacity:1;fill-rule:nonzero;stroke:none"
         d="m 5772.46,5818.26 c -21.66,-30.83 -529.59,-762.09 11.35,-1353.41 248.09,-271.38 226.55,-510.85 155.72,-672.58 h 347 c 70.27,238.8 41.27,538.29 -240.44,846.08 -398.57,435.72 5.11,1024.67 11.17,1033.78 47.58,67.18 22.09,153.77 -56.31,194.19 -78.71,40.17 -180.72,18.69 -228.49,-48.06" /><path
         id="path22"
         style="fill:#ffffff;fill-opacity:1;fill-rule:nonzero;stroke:none"
         d="m 4893.68,3792.27 h 347.12 c 70.16,238.86 41.02,538.22 -240.68,846.08 -398.7,435.78 4.67,1024.43 11.05,1034.08 47.33,66.88 22.27,153.35 -56.44,193.89 -78.41,40.06 -180.6,18.75 -228.18,-48.06 -21.78,-30.71 -530.15,-762.09 11.29,-1353.41 248.08,-271.45 226.47,-510.97 155.84,-672.58" /><path
         id="path24"
         style="fill:#ffffff;fill-opacity:1;fill-rule:nonzero;stroke:none"
         d="m 3680.46,5818.26 c -21.97,-30.83 -529.91,-762.09 11.16,-1353.41 248.2,-271.51 226.72,-510.97 156.09,-672.58 h 347 c 70.15,238.68 41.14,538.16 -240.8,846.08 -398.71,435.72 4.97,1024.67 11.34,1034.02 47.16,66.94 22.03,153.53 -56.68,193.95 -78.4,40.42 -180.54,18.82 -228.11,-48.06" /><path
         id="path26"
         style="fill:#ffffff;fill-opacity:1;fill-rule:nonzero;stroke:none"
         d="m 2990.58,8457.09 h 208.56 v -112.11 h -352.03 v 112.11 l 215.8,593.16 h -194.1 v 112.12 h 338.77 v -112.12 l -217,-593.16" /><path
         id="path28"
         style="fill:#ffffff;fill-opacity:1;fill-rule:nonzero;stroke:none"
         d="m 3291.95,9162.37 h 327.93 v -112.12 h -190.49 v -233.89 h 136.23 v -110.91 h -136.23 v -248.36 h 190.49 v -112.11 h -327.93 v 817.39" /><path
         id="path30"
         style="fill:#ffffff;fill-opacity:1;fill-rule:nonzero;stroke:none"
         d="m 3842.89,9050.25 v -254.38 h 45.81 c 47.02,0 67.52,24.11 67.52,67.51 v 120.56 c 0,44.61 -20.5,66.31 -67.52,66.31 z m 0,-330.33 v -374.94 h -137.44 v 817.39 h 200.14 c 138.64,0 189.27,-68.72 189.27,-183.25 v -104.89 c 0,-88 -31.34,-139.85 -109.71,-157.93 l 131.41,-371.32 h -144.68 l -128.99,374.94" /><path
         id="path32"
         style="fill:#ffffff;fill-opacity:1;fill-rule:nonzero;stroke:none"
         d="m 4460.13,8534.25 v 438.84 c 0,49.43 -21.7,84.39 -71.14,84.39 -48.22,0 -69.92,-34.96 -69.92,-84.39 v -438.84 c 0,-49.43 21.7,-84.39 69.92,-84.39 49.44,0 71.14,34.96 71.14,84.39 z m -278.5,21.71 v 395.43 c 0,127.79 62.7,220.63 207.36,220.63 145.88,0 208.58,-92.84 208.58,-220.63 v -395.43 c 0,-126.59 -62.7,-220.63 -208.58,-220.63 -144.66,0 -207.36,94.04 -207.36,220.63" /><path
         id="path34"
         style="fill:#ffffff;fill-opacity:1;fill-rule:nonzero;stroke:none"
         d="M 3124.86,7507.92 H 2992.25 V 7147.45 H 2854.8 v 817.39 h 137.45 v -346.01 h 132.61 v 346.01 h 138.65 v -817.39 h -138.65 v 360.47" /><path
         id="path36"
         style="fill:#ffffff;fill-opacity:1;fill-rule:nonzero;stroke:none"
         d="m 3752.95,7964.84 v -618.47 c 0,-126.59 -54.25,-208.57 -194.1,-208.57 -144.67,0 -204.95,81.98 -204.95,208.57 v 618.47 h 137.44 v -631.73 c 0,-48.22 19.28,-80.78 67.51,-80.78 48.22,0 67.52,32.56 67.52,80.78 v 631.73 h 126.58" /><path
         id="path38"
         style="fill:#ffffff;fill-opacity:1;fill-rule:nonzero;stroke:none"
         d="m 3959.09,7661.03 v -513.58 h -115.74 v 817.39 h 135.03 l 148.29,-468.98 v 468.98 h 114.53 v -817.39 h -120.56 l -161.55,513.58" /><path
         id="path40"
         style="fill:#ffffff;fill-opacity:1;fill-rule:nonzero;stroke:none"
         d="m 4538.95,7583.87 h 195.31 v -436.42 h -98.86 v 89.22 c -18.09,-61.5 -56.67,-98.87 -131.42,-98.87 -118.14,0 -172.4,94.04 -172.4,220.62 v 395.44 c 0,127.8 61.49,220.63 206.16,220.63 151.91,0 196.52,-84.4 196.52,-204.95 v -72.34 h -125.38 v 83.19 c 0,50.63 -19.3,79.57 -68.72,79.57 -49.44,0 -71.14,-34.96 -71.14,-84.4 v -438.84 c 0,-49.42 20.5,-84.39 67.51,-84.39 44.61,0 67.52,25.32 67.52,78.37 v 144.67 h -65.1 v 108.5" /><path
         id="path42"
         style="fill:#ffffff;fill-opacity:1;fill-rule:nonzero;stroke:none"
         d="m 4824.64,7964.84 h 327.93 v -112.12 h -190.49 v -233.89 h 136.23 v -110.91 h -136.23 v -248.35 h 190.49 v -112.12 h -327.93 v 817.39" /><path
         id="path44"
         style="fill:#ffffff;fill-opacity:1;fill-rule:nonzero;stroke:none"
         d="m 5375.58,7852.72 v -254.38 h 45.81 c 47.02,0 67.52,24.12 67.52,67.51 v 120.56 c 0,44.61 -20.5,66.31 -67.52,66.31 z m 0,-330.33 v -374.94 h -137.45 v 817.39 h 200.14 c 138.64,0 189.28,-68.72 189.28,-183.25 V 7676.7 c 0,-88 -31.35,-139.85 -109.72,-157.93 l 131.42,-371.32 h -144.68 l -128.99,374.94" /></g></g></svg>