<?xml version="1.0" encoding="UTF-8" standalone="no"?>
<svg
   xmlns:dc="http://purl.org/dc/elements/1.1/"
   xmlns:cc="http://creativecommons.org/ns#"
   xmlns:rdf="http://www.w3.org/1999/02/22-rdf-syntax-ns#"
   xmlns:svg="http://www.w3.org/2000/svg"
   xmlns="http://www.w3.org/2000/svg"
   viewBox="0 0 1333.3333 1333.3333"
   height="1333.3333"
   width="1333.3333"
   xml:space="preserve"
   id="svg2"
   version="1.1"><metadata
     id="metadata8"><rdf:RDF><cc:Work
         rdf:about=""><dc:format>image/svg+xml</dc:format><dc:type
           rdf:resource="http://purl.org/dc/dcmitype/StillImage" /></cc:Work></rdf:RDF></metadata><defs
     id="defs6" /><g
     transform="matrix(1.3333333,0,0,-1.3333333,0,1333.3333)"
     id="g10"><g
       transform="scale(0.1)"
       id="g12"><path
         id="path14"
         style="fill:#4398d9;fill-opacity:1;fill-rule:nonzero;stroke:none"
         d="M 0,0 H 10000 V 10000 H 0 Z" /><path
         id="path16"
         style="fill:#ffffff;fill-opacity:1;fill-rule:nonzero;stroke:none"
         d="M 1302.86,9158.6 V 7143.27 H 963.926 v 1542.68 h -2.969 L 723.25,8439.28 h -3.094 v 353.71 l 312.104,365.61 h 270.6" /><path
         id="path18"
         style="fill:#ffffff;fill-opacity:1;fill-rule:nonzero;stroke:none"
         d="m 3555.99,8345.22 h 137.391 v 817.695 H 3555.99 Z" /><path
         id="path20"
         style="fill:#ffffff;fill-opacity:1;fill-rule:nonzero;stroke:none"
         d="m 3773.91,8345.15 h 137.39 v 360.7 h 137.39 v 110.93 H 3911.3 v 233.99 h 184.43 v 112.14 h -321.82 v -817.76" /><path
         id="path22"
         style="fill:#ffffff;fill-opacity:1;fill-rule:nonzero;stroke:none"
         d="m 4484.84,9050.77 v 112.14 h -327.82 v -817.76 h 327.82 v 112.15 h -190.43 v 248.55 h 136.17 v 110.93 h -136.17 v 233.99 h 190.43" /><path
         id="path24"
         style="fill:#ffffff;fill-opacity:1;fill-rule:nonzero;stroke:none"
         d="m 5006.61,8523.68 c 0,-43.39 -21.84,-66.26 -67.48,-66.26 h -60.32 v 255.59 h 59.11 c 48.18,0 68.69,-22.87 68.69,-66.32 z m -127.8,527.09 h 47.03 c 45.82,0 66.33,-21.84 66.33,-66.39 v -100.06 c 0,-43.51 -20.51,-66.39 -65.18,-66.39 h -48.18 z m 265.13,-417.31 c 0,74.7 -33.68,120.57 -102.37,136.29 56.56,18.08 81.98,61.47 81.98,130.17 v 83.31 c 0,115.6 -45.81,179.68 -183.2,179.68 h -198.93 v -817.76 h 213.31 c 137.45,0 189.21,63.96 189.21,179.81 v 108.5" /><path
         id="path26"
         style="fill:#ffffff;fill-opacity:1;fill-rule:nonzero;stroke:none"
         d="m 5202.63,8345.15 h 327.82 V 8457.3 H 5339.9 v 248.55 h 136.18 v 110.93 H 5339.9 v 233.99 h 190.55 v 112.14 h -327.82 v -817.76" /><path
         id="path28"
         style="fill:#ffffff;fill-opacity:1;fill-rule:nonzero;stroke:none"
         d="m 5614.87,9162.91 v -817.76 h 301.42 v 112.15 h -163.97 v 705.61 h -137.45" /><path
         id="path30"
         style="fill:#ffffff;fill-opacity:1;fill-rule:nonzero;stroke:none"
         d="m 6247.15,8973.58 v -439.1 c 0,-49.39 -21.73,-84.34 -71.25,-84.34 -48.06,0 -69.91,34.95 -69.91,84.34 v 439.1 c 0,49.4 21.85,84.35 69.91,84.35 49.52,0 71.25,-34.95 71.25,-84.35 M 5968.6,8951.8 v -395.53 c 0,-126.77 62.75,-220.7 207.3,-220.7 145.95,0 208.58,93.93 208.58,220.7 v 395.53 c 0,127.8 -62.63,220.7 -208.58,220.7 -144.55,0 -207.3,-92.9 -207.3,-220.7" /><path
         id="path32"
         style="fill:#ffffff;fill-opacity:1;fill-rule:nonzero;stroke:none"
         d="m 6631.1,8644.26 h -1.15 l -63.9,518.65 h -132.6 l 109.72,-817.76 h 128.9 l 77.19,505.43 h 1.15 l 80.77,-505.43 h 130.23 l 105.96,817.76 h -115.61 l -62.8,-518.65 h -1.1 l -75.85,518.65 h -112.15 l -68.76,-518.65" /><path
         id="path34"
         style="fill:#ffffff;fill-opacity:1;fill-rule:nonzero;stroke:none"
         d="m 3281.45,7146.34 h 128.89 l 77.2,505.24 h 1.15 l 80.83,-505.24 h 130.17 l 106.08,817.58 h -115.79 l -62.62,-518.59 h -1.22 l -75.86,518.59 h -112.15 l -68.69,-518.59 h -1.22 l -63.9,518.59 h -132.6 l 109.73,-817.58" /><path
         id="path36"
         style="fill:#ffffff;fill-opacity:1;fill-rule:nonzero;stroke:none"
         d="m 4013.68,7733.56 h 1.33 l 54.26,-327.92 H 3959.49 Z M 3787.2,7146.34 h 130.17 l 24.03,149.4 h 145.95 l 25.19,-149.4 h 140.96 l -155.47,817.58 H 3941.4 l -154.2,-817.58" /><path
         id="path38"
         style="fill:#ffffff;fill-opacity:1;fill-rule:nonzero;stroke:none"
         d="m 4479.25,7146.34 v 705.44 h 113.31 v 112.14 h -365.15 v -112.14 h 113.24 v -705.44 h 138.6" /><path
         id="path40"
         style="fill:#ffffff;fill-opacity:1;fill-rule:nonzero;stroke:none"
         d="m 4984.04,7851.78 v 112.14 h -327.82 v -817.64 h 327.82 v 112.14 H 4793.6 v 248.44 h 136.24 V 7617.9 H 4793.6 v 233.88 h 190.44" /><path
         id="path42"
         style="fill:#ffffff;fill-opacity:1;fill-rule:nonzero;stroke:none"
         d="m 5308.1,7664.81 c 0,-43.38 -20.45,-67.54 -67.42,-67.54 h -45.88 v 254.51 h 45.88 c 46.97,0 67.42,-21.67 67.42,-66.27 z m 138.6,10.93 v 104.86 c 0,114.56 -50.6,183.19 -189.21,183.19 h -200.08 v -817.45 h 137.39 v 374.9 l 128.89,-374.9 h 144.74 l -131.33,371.44 c 78.29,18.02 109.6,69.91 109.6,157.96" /><path
         id="path44"
         style="fill:#ffffff;fill-opacity:1;fill-rule:nonzero;stroke:none"
         d="m 1713.27,7734.59 303.37,829.72 h 2.97 v -829.72 z m 621.6,-591.77 v 327.08 h 136.79 v 264.69 h -136.79 v 1424.47 h -333.1 L 1415.91,7678.1 v -208.2 h 597.76 v -327.08 h 321.2" /><path
         id="path46"
         style="fill:#ffffff;fill-opacity:1;fill-rule:nonzero;stroke:none"
         d="m 6233.13,2548.76 c -183.76,0 -332.68,149.13 -332.68,332.78 0,183.66 148.92,332.39 332.68,332.39 184.18,0 333.04,-148.73 333.04,-332.39 0,-183.65 -148.86,-332.78 -333.04,-332.78 m 1444.8,155.04 c -125.86,170.03 -938.8,1206.43 -2078.54,1206.43 -989.72,0 -2048.5,-897.65 -2048.5,-897.65 0,0 -397.73,814 -1211.28,892.22 -4.79,0 -9.9,1.06 -15.3,1.06 h -5.03 c -17,-0.94 -32.89,-17.44 -31.07,-32.19 2.3,-14.26 12.74,-29.77 12.74,-29.77 104.86,-174.09 372.49,-669.38 372.49,-1164.19 0,-496.42 -269.21,-993.04 -373.09,-1166.29 l -7.04,-11.04 c -3.04,-5.22 -5.1,-10.44 -5.1,-17.17 0,-17.18 13.35,-30.53 30.04,-32.05 l 8.8,0.73 c 2.73,0 5.64,0 8.56,0.79 816.09,76.04 1215.28,892.52 1215.28,892.52 0,0 1058.78,-897.74 2048.5,-897.74 1139.74,0 1952.68,1036.46 2078.54,1206.1 3.45,4.64 6.25,8.65 8.74,11.68 1.45,3.98 2.67,7.7 2.67,12.47 0,4.46 -1.22,8.95 -2.67,12.41 -2.49,3.46 -5.29,7.43 -8.74,11.68" /><path
         id="path48"
         style="fill:#ffffff;fill-opacity:1;fill-rule:nonzero;stroke:none"
         d="m 2313.94,5858.29 c -2.49,0.55 -4.19,1.4 -6.26,1.4 -18.02,0 -32.7,-14.72 -32.7,-33.04 v -226.83 c 0,-9.5 3.58,-17.84 9.53,-23.49 550.17,-478.02 1071.09,-30.13 1191.67,88.24 2.49,3.58 5.04,7.03 8.62,9.22 5.4,3.46 11.29,5.91 18.03,5.91 8.49,0 16.5,-3.27 22.15,-8.76 0.42,-0.61 1.09,-1.13 1.58,-1.4 621.48,-593.08 1273.12,-112.72 1408.69,0 l 13.35,12.2 c 3.82,1.78 7.95,2.46 12.38,2.46 4.61,0 9.22,-0.68 12.92,-2.46 l 13.41,-12.2 c 135.52,-112.72 787.16,-593.08 1408.58,0 0.12,0.27 0.91,0.79 1.21,1.4 5.83,5.49 13.47,8.76 22.09,8.76 6.73,0 12.99,-2.45 18.03,-5.91 3.76,-2.19 6.37,-5.64 9.16,-9.22 120.46,-118.37 640.83,-566.26 1191.49,-88.24 5.71,5.65 9.47,13.99 9.47,23.49 v 226.83 c 0,18.32 -14.26,33.04 -32.28,33.04 -2.37,0 -4.55,-0.85 -7.04,-1.4 -5.1,-2.91 -10.38,-5.64 -16.51,-8.56 -169.19,-84.77 -694,-286.36 -1170.38,164.34 -4.49,4.18 -9.16,8.37 -13.84,13.23 -4.36,1.79 -8.55,2.97 -13.89,2.97 -3.34,0 -6.92,-0.94 -9.83,-1.52 -7.1,-2.85 -12.75,-7.38 -16.57,-12.86 -142,-108.23 -793.64,-549.37 -1373.98,-8.04 l -8.5,8.28 c -6.07,5.37 -14.32,9.77 -23.54,9.77 -8.56,0 -17.05,-4.4 -22.7,-9.77 l -9.04,-8.28 c -580.03,-541.33 -1232.4,-100.19 -1374.16,8.04 -3.71,5.48 -9.17,10.01 -16.15,12.86 -3.33,0.58 -6.67,1.52 -10.37,1.52 -4.61,0 -9.23,-1.18 -13.66,-2.97 -4.25,-4.86 -9.28,-9.05 -13.95,-13.23 -476.33,-450.7 -1000.95,-249.11 -1170.26,-164.34 -5.95,2.92 -11.6,5.65 -16.75,8.56" /><path
         id="path50"
         style="fill:#ffffff;fill-opacity:1;fill-rule:nonzero;stroke:none"
         d="m 3476.18,4839.22 c 2.61,3.7 5.04,6.43 8.68,9.01 5.34,3.34 11.29,6.13 17.97,6.13 8.49,0 16.57,-3.46 22.27,-9.1 0.3,-0.55 0.97,-1 1.46,-1.4 621.29,-592.26 1273.12,-112.2 1408.75,0 l 13.29,12.68 c 3.82,1.52 7.95,2.07 12.32,2.07 4.73,0 9.22,-0.55 13.11,-2.07 l 13.28,-12.68 c 135.52,-112.2 787.09,-592.26 1408.64,0 0.12,0.4 0.66,0.85 1.15,1.4 5.83,5.64 13.41,9.1 22.03,9.1 6.86,0 13.05,-2.79 18.02,-6.13 3.89,-2.58 6.44,-5.31 9.23,-9.01 120.4,-118.48 640.77,-566.54 1191.49,-88.05 5.77,5.86 9.65,13.53 9.65,22.97 v 227.44 c 0,18.11 -14.56,32.55 -32.46,32.55 -2.37,0 -4.55,-0.91 -7.04,-1.36 -5.1,-2.46 -10.44,-5.31 -16.51,-8.25 -169.06,-84.84 -694.12,-285.94 -1170.38,164.14 -4.43,4.25 -9.1,8.5 -13.77,13.08 -4.43,2.46 -8.62,3.25 -13.96,3.25 -3.34,0 -6.86,-0.79 -9.83,-2.46 -7.17,-1.79 -12.75,-6.32 -16.57,-12.2 -141.88,-108.07 -793.64,-549.36 -1374.04,-7.98 l -8.5,8.49 c -6.01,5.8 -14.32,9.11 -23.54,9.11 -8.5,0 -16.99,-3.31 -22.7,-9.11 l -8.98,-8.49 c -580.03,-541.38 -1232.4,-100.09 -1374.16,7.98 -3.71,5.88 -9.23,10.41 -16.08,12.2 -3.34,1.67 -6.86,2.46 -10.44,2.46 -4.68,0 -9.16,-0.79 -13.54,-3.25 -4.48,-4.58 -9.28,-8.83 -14.14,-13.08 C 3024.57,4738.58 2500,4939.68 2330.69,5024.52 c -5.95,2.94 -11.53,5.79 -16.69,8.25 -2.55,0.45 -4.19,1.36 -6.25,1.36 -18.09,0 -32.77,-14.44 -32.77,-32.55 v -227.44 c 0,-9.44 3.58,-17.11 9.46,-22.97 550.24,-478.49 1071.22,-30.43 1191.74,88.05" /><path
         id="path52"
         style="fill:#ffffff;fill-opacity:1;fill-rule:nonzero;stroke:none"
         d="m 3190.96,9162.91 v -817.76 h 301.49 v 112.15 h -163.97 v 705.61 h -137.52" /></g></g></svg>