<?xml version="1.0" encoding="UTF-8" standalone="no"?>
<svg
   xmlns:dc="http://purl.org/dc/elements/1.1/"
   xmlns:cc="http://creativecommons.org/ns#"
   xmlns:rdf="http://www.w3.org/1999/02/22-rdf-syntax-ns#"
   xmlns:svg="http://www.w3.org/2000/svg"
   xmlns="http://www.w3.org/2000/svg"
   viewBox="0 0 1333.2667 1333.3333"
   height="1333.3333"
   width="1333.2667"
   xml:space="preserve"
   id="svg2"
   version="1.1"><metadata
     id="metadata8"><rdf:RDF><cc:Work
         rdf:about=""><dc:format>image/svg+xml</dc:format><dc:type
           rdf:resource="http://purl.org/dc/dcmitype/StillImage" /></cc:Work></rdf:RDF></metadata><defs
     id="defs6"><clipPath
       id="clipPath20"
       clipPathUnits="userSpaceOnUse"><path
         id="path18"
         d="M 0,10000 V 0 h 9999.52 v 10000 z" /></clipPath></defs><g
     transform="matrix(1.3333333,0,0,-1.3333333,0,1333.3333)"
     id="g10"><g
       transform="scale(0.1)"
       id="g12"><g
         id="g14"><g
           clip-path="url(#clipPath20)"
           id="g16"><path
             id="path22"
             style="fill:#f03834;fill-opacity:1;fill-rule:nonzero;stroke:none"
             d="M 0,0 H 9999.52 V 10000 H 0 Z" /><path
             id="path24"
             style="fill:#ffffff;fill-opacity:1;fill-rule:nonzero;stroke:none"
             d="m 3027.73,8335.94 c 74.89,0 113.48,37.39 131.44,98.79 v -89.14 h 98.8 v 436.5 H 3062.8 v -108.51 h 65.06 v -144.79 c 0,-52.97 -22.94,-78.34 -67.6,-78.34 -46.97,0 -67.48,35.01 -67.48,84.41 v 439.11 c 0,49.27 21.72,84.28 71.24,84.28 49.4,0 68.69,-28.88 68.69,-79.61 v -83.2 h 125.26 v 72.39 c 0,120.59 -44.55,205.06 -196.38,205.06 -144.67,0 -206.08,-92.85 -206.08,-220.71 v -395.59 c 0,-126.59 54.13,-220.65 172.22,-220.65" /><path
             id="path26"
             style="fill:#ffffff;fill-opacity:1;fill-rule:nonzero;stroke:none"
             d="m 3676.32,8457.67 h -190.43 v 248.5 h 136.3 v 110.99 h -136.3 v 233.88 h 190.43 V 9163.3 H 3348.5 v -817.77 h 327.82 v 112.14" /><path
             id="path28"
             style="fill:#ffffff;fill-opacity:1;fill-rule:nonzero;stroke:none"
             d="m 3877.79,8859.28 161.41,-513.75 h 120.64 v 817.77 h -114.45 v -469.2 l -148.43,469.2 h -134.84 v -817.77 h 115.67 v 513.75" /><path
             id="path30"
             style="fill:#ffffff;fill-opacity:1;fill-rule:nonzero;stroke:none"
             d="m 4387.77,8457.67 v 593.43 h 57.89 c 56.68,0 78.28,-33.81 78.28,-81.99 v -428.18 c 0,-49.4 -21.6,-83.26 -78.28,-83.26 z m 273.56,107.41 v 378.66 c 0,126.6 -51.82,219.56 -198.92,219.56 h -212.03 v -817.77 h 212.03 c 147.1,0 198.92,94.06 198.92,219.55" /><path
             id="path32"
             style="fill:#ffffff;fill-opacity:1;fill-rule:nonzero;stroke:none"
             d="m 5079.68,8457.67 h -190.3 v 248.5 h 136.17 v 110.99 h -136.17 v 233.88 h 190.3 v 112.26 h -327.81 v -817.77 h 327.81 v 112.14" /><path
             id="path34"
             style="fill:#ffffff;fill-opacity:1;fill-rule:nonzero;stroke:none"
             d="m 5301.65,9051.04 h 45.64 c 47.09,0 67.48,-21.61 67.48,-66.27 v -120.52 c 0,-43.51 -20.39,-67.6 -67.48,-67.6 h -45.64 z m 0,-330.37 128.78,-375.14 h 144.66 l -131.31,371.5 c 78.28,18.02 109.71,69.97 109.71,157.96 v 104.92 c 0,114.57 -50.61,183.39 -189.21,183.39 h -200.13 v -817.77 h 137.5 v 375.14" /><path
             id="path36"
             style="fill:#ffffff;fill-opacity:1;fill-rule:nonzero;stroke:none"
             d="M 3183.32,7258.87 H 2992.9 v 248.44 h 136.18 v 110.93 H 2992.9 v 233.99 h 190.42 v 112.21 h -327.81 v -817.77 h 327.81 v 112.2" /><path
             id="path38"
             style="fill:#ffffff;fill-opacity:1;fill-rule:nonzero;stroke:none"
             d="m 3405.18,7775.04 c 0,49.34 21.73,84.41 69.91,84.41 49.52,0 71.12,-35.07 71.12,-84.41 v -446.32 c 0,-48.18 -21.6,-84.35 -71.12,-84.35 -48.18,0 -69.91,36.17 -69.91,84.35 z m 19.42,-628.25 v -55.59 l 259,-48.24 v 102.56 l -101.22,19.36 c 69.91,33.74 101.22,103.65 101.22,192.91 v 395.59 c 0,127.8 -62.63,220.71 -208.51,220.71 -144.55,0 -207.18,-92.91 -207.18,-220.71 v -395.59 c 0,-110.99 46.98,-191.82 156.69,-211" /><path
             id="path40"
             style="fill:#ffffff;fill-opacity:1;fill-rule:nonzero;stroke:none"
             d="m 3772.92,7964.38 v -618.66 c 0,-126.65 60.32,-208.64 204.87,-208.64 139.93,0 194.06,81.99 194.06,208.64 v 618.66 h -126.46 v -631.89 c 0,-48.31 -19.3,-80.84 -67.6,-80.84 -48.18,0 -67.48,32.53 -67.48,80.84 v 631.89 h -137.39" /><path
             id="path42"
             style="fill:#ffffff;fill-opacity:1;fill-rule:nonzero;stroke:none"
             d="m 4466.05,7734.03 h 1.34 l 54.13,-328 h -109.6 z m -72.21,-437.72 h 145.88 l 25.24,-149.58 h 141.03 l -155.47,817.65 h -156.68 l -154.27,-817.65 h 130.24 l 24.03,149.58" /><path
             id="path44"
             style="fill:#ffffff;fill-opacity:1;fill-rule:nonzero;stroke:none"
             d="m 4773.59,7964.38 v -817.71 h 301.35 v 112.14 H 4911.1 v 705.57 h -137.51" /><path
             id="path46"
             style="fill:#ffffff;fill-opacity:1;fill-rule:nonzero;stroke:none"
             d="m 5148.49,7146.67 h 137.508 v 817.707 H 5148.49 Z" /><path
             id="path48"
             style="fill:#ffffff;fill-opacity:1;fill-rule:nonzero;stroke:none"
             d="m 5612.6,7146.67 v 705.56 h 113.23 v 112.09 H 5360.76 V 7852.23 H 5474 v -705.56 h 138.6" /><path
             id="path50"
             style="fill:#ffffff;fill-opacity:1;fill-rule:nonzero;stroke:none"
             d="m 5930.82,7146.67 h 137.51 v 311.18 l 151.71,506.47 h -131.2 l -83.25,-309.85 h -1.22 l -83.02,309.85 h -143.57 l 153.04,-506.47 v -311.18" /><path
             id="path52"
             style="fill:#ffffff;fill-opacity:1;fill-rule:nonzero;stroke:none"
             d="m 1594.39,8523.6 c -133.75,0 -231.93,-47.51 -285.45,-139.75 h -3.04 v 502.58 h 582.93 v 276.53 H 996.781 V 8026.92 H 1305.9 v 44.78 c 0,118.93 53.65,184.36 148.68,184.36 104.13,0 145.88,-71.49 145.88,-181.57 v -487.65 c 0,-107.11 -38.72,-181.38 -142.85,-181.38 -116.03,0 -157.53,77.3 -157.53,196.18 v 252.81 H 990.594 v -228.96 c 0,-306.27 121.976,-502.58 467.016,-502.58 342.01,0 481.71,181.38 481.71,460.96 v 493.65 c 0,318.23 -163.49,446.08 -344.93,446.08" /><path
             id="path54"
             style="fill:#ffffff;fill-opacity:1;fill-rule:nonzero;stroke:none"
             d="m 4982.46,2743.55 c -660.66,0 -1198.01,537.53 -1198.01,1198.13 0,660.69 537.35,1198.16 1198.01,1198.16 660.72,0 1198.2,-537.47 1198.2,-1198.16 0,-660.6 -537.48,-1198.13 -1198.2,-1198.13 M 7283.45,6216.18 H 6040.66 c -8.5,0 -15.78,-7.04 -15.78,-15.84 v -412.98 c 0,-8.86 7.28,-15.89 15.78,-15.89 h 494.87 l -549.49,-549.61 c -276.77,217.46 -625.04,347.59 -1003.58,347.59 -897.45,0 -1627.77,-730.2 -1627.77,-1627.77 0,-826.39 619.16,-1510.25 1417.69,-1613.72 v -475.88 h -490.2 c -9.11,0 -16.02,-7.03 -16.02,-15.72 v -442.65 c 0,-8.79 6.91,-15.81 16.02,-15.81 h 490.2 V 909.582 c 0,-8.742 7.03,-15.781 15.78,-15.781 h 442.44 c 8.8,0 16.02,7.039 16.02,15.781 V 1377.9 h 490.14 c 8.73,0 15.77,7.02 15.77,15.81 v 442.65 c 0,8.69 -7.04,15.72 -15.77,15.72 h -490.14 v 483.62 c 772.31,126.67 1363.55,798.38 1363.55,1605.98 0,348.38 -110.26,671.25 -297.29,936.26 l 541.66,541.74 v -462.22 c 0,-8.74 7.29,-15.78 16.02,-15.78 h 412.89 c 8.86,0 16.14,7.04 16.14,15.78 v 1242.88 c 0,8.8 -7.28,15.84 -16.14,15.84" /><path
             id="path56"
             style="fill:#ffffff;fill-opacity:1;fill-rule:nonzero;stroke:none"
             d="M 5714.31,4433.49 H 4261.06 c -8.74,0 -15.78,-6.46 -15.78,-14.17 v -351.81 c 0,-8.25 7.04,-14.44 15.78,-14.44 h 1453.25 c 9.04,0 16.08,6.19 16.08,14.44 v 351.81 c 0,7.71 -7.04,14.17 -16.08,14.17" /><path
             id="path58"
             style="fill:#ffffff;fill-opacity:1;fill-rule:nonzero;stroke:none"
             d="M 5714.31,3805.3 H 4261.06 c -8.74,0 -15.78,-6.65 -15.78,-14.66 v -351.81 c 0,-7.89 7.04,-14.2 15.78,-14.2 h 1453.25 c 9.04,0 16.08,6.31 16.08,14.2 v 351.81 c 0,8.01 -7.04,14.66 -16.08,14.66" /></g></g></g></g></svg>