<?xml version="1.0" encoding="UTF-8" standalone="no"?>
<svg
   xmlns:dc="http://purl.org/dc/elements/1.1/"
   xmlns:cc="http://creativecommons.org/ns#"
   xmlns:rdf="http://www.w3.org/1999/02/22-rdf-syntax-ns#"
   xmlns:svg="http://www.w3.org/2000/svg"
   xmlns="http://www.w3.org/2000/svg"
   viewBox="0 0 1333.3333 1333.3733"
   height="1333.3733"
   width="1333.3333"
   xml:space="preserve"
   id="svg2"
   version="1.1"><metadata
     id="metadata8"><rdf:RDF><cc:Work
         rdf:about=""><dc:format>image/svg+xml</dc:format><dc:type
           rdf:resource="http://purl.org/dc/dcmitype/StillImage" /></cc:Work></rdf:RDF></metadata><defs
     id="defs6" /><g
     transform="matrix(1.3333333,0,0,-1.3333333,0,1333.3733)"
     id="g10"><g
       transform="scale(0.1)"
       id="g12"><path
         id="path14"
         style="fill:#f9bc18;fill-opacity:1;fill-rule:nonzero;stroke:none"
         d="M 0,0 H 10000 V 10000.3 H 0 Z" /><path
         id="path16"
         style="fill:#ffffff;fill-opacity:1;fill-rule:nonzero;stroke:none"
         d="m 1025.7,8885.6 h 523.48 L 1097.01,7145.93 h 336.2 l 443.12,1703.99 v 312.35 H 1025.7 V 8885.6" /><path
         id="path18"
         style="fill:#ffffff;fill-opacity:1;fill-rule:nonzero;stroke:none"
         d="m 5003.88,2938.54 c -420.98,0 -762.27,341.23 -762.27,762.27 0,342.21 225.26,631.62 535.73,728.1 v -283.82 c -161.61,-82.53 -272.48,-250.27 -272.48,-444.28 0,-275.63 223.33,-499.01 499.02,-499.01 275.69,0 499.02,223.38 499.02,499.01 0,194.56 -111.42,362.6 -273.76,444.95 v 283.52 c 311.08,-96.06 537.13,-385.78 537.13,-728.47 0,-421.04 -341.29,-762.27 -762.39,-762.27 M 4895.13,4576.2 c 0,48.79 48.97,102.5 109.12,102.5 60.01,0 108.56,-53.71 108.56,-102.5 V 4073 c 0,-48.56 -48.55,-101.71 -108.56,-101.71 -60.15,0 -109.12,53.15 -109.12,101.71 z m 108.51,579 c -809.36,0 -1465.5,-656.19 -1465.5,-1465.61 0,-809.79 656.14,-1465.8 1465.5,-1465.8 809.36,0 1465.49,656.01 1465.49,1465.8 0,809.42 -656.13,1465.61 -1465.49,1465.61" /><path
         id="path20"
         style="fill:#ffffff;fill-opacity:1;fill-rule:nonzero;stroke:none"
         d="m 3321.26,3702.39 c 0,66.45 -58.87,120.28 -112.64,120.28 h -641.81 c -54.13,0 -113.54,-53.83 -113.54,-120.28 0,-66.63 59.41,-120.76 113.54,-120.76 h 641.81 c 53.77,0 112.64,54.13 112.64,120.76" /><path
         id="path22"
         style="fill:#ffffff;fill-opacity:1;fill-rule:nonzero;stroke:none"
         d="m 7554.67,3702.39 c 0,66.45 -58.86,120.28 -112.63,120.28 h -641.81 c -54.07,0 -113.48,-53.83 -113.48,-120.28 0,-66.63 59.41,-120.76 113.48,-120.76 h 641.81 c 53.77,0 112.63,54.13 112.63,120.76" /><path
         id="path24"
         style="fill:#ffffff;fill-opacity:1;fill-rule:nonzero;stroke:none"
         d="m 5004.25,5384.89 c 66.33,0 120.21,58.87 120.21,112.57 v 641.87 c 0,54.14 -53.88,113.49 -120.21,113.49 -66.58,0 -120.83,-59.35 -120.83,-113.49 v -641.87 c 0,-53.7 54.25,-112.57 120.83,-112.57" /><path
         id="path26"
         style="fill:#ffffff;fill-opacity:1;fill-rule:nonzero;stroke:none"
         d="m 5004.25,1151.54 c 66.33,0 120.21,58.86 120.21,112.63 v 641.74 c 0,54.08 -53.88,113.55 -120.21,113.55 -66.58,0 -120.83,-59.47 -120.83,-113.55 v -641.74 c 0,-53.77 54.25,-112.63 120.83,-112.63" /><path
         id="path28"
         style="fill:#ffffff;fill-opacity:1;fill-rule:nonzero;stroke:none"
         d="m 3543.61,4538.21 c 33.07,57.71 8.73,133.63 -37.99,160.33 l -557.04,318.78 c -46.97,26.95 -125.25,9.71 -158.26,-47.94 -33.08,-57.83 -8.38,-134.29 38.59,-161.24 l 557.04,-318.78 c 46.6,-26.7 124.58,-8.98 157.66,48.85" /><path
         id="path30"
         style="fill:#ffffff;fill-opacity:1;fill-rule:nonzero;stroke:none"
         d="m 7217.86,2435.4 c 32.96,57.59 8.62,133.62 -37.98,160.33 l -557.03,318.78 c -46.97,26.88 -125.32,9.65 -158.27,-48.06 -33.08,-57.71 -8.44,-134.3 38.53,-161.12 l 557.04,-318.79 c 46.66,-26.7 124.58,-8.97 157.71,48.86" /><path
         id="path32"
         style="fill:#ffffff;fill-opacity:1;fill-rule:nonzero;stroke:none"
         d="m 5840.07,5162.48 c 57.65,-32.95 133.5,-8.62 160.27,37.99 l 318.78,557.03 c 26.94,47.04 9.71,125.32 -47.94,158.33 -57.78,33.14 -134.36,8.37 -161.25,-38.59 l -318.78,-556.97 c -26.7,-46.73 -8.98,-124.72 48.92,-157.79" /><path
         id="path34"
         style="fill:#ffffff;fill-opacity:1;fill-rule:nonzero;stroke:none"
         d="m 3737.25,1488.28 c 57.6,-32.95 133.57,-8.62 160.27,38.05 l 318.78,556.97 c 26.89,46.97 9.65,125.38 -48,158.33 -57.71,33.07 -134.36,8.38 -161.18,-38.53 l -318.78,-557.04 c -26.7,-46.61 -8.92,-124.71 48.91,-157.78" /><path
         id="path36"
         style="fill:#ffffff;fill-opacity:1;fill-rule:nonzero;stroke:none"
         d="m 4165.33,5161.03 c 57.59,33.13 74.94,110.99 48.12,157.6 l -319.93,556.42 c -27.07,46.91 -103.23,71.49 -160.88,38.35 -57.83,-33.13 -75.07,-111.66 -48,-158.57 l 319.87,-556.3 c 26.88,-46.61 102.98,-70.7 160.82,-37.5" /><path
         id="path38"
         style="fill:#ffffff;fill-opacity:1;fill-rule:nonzero;stroke:none"
         d="m 6275.66,1491.13 c 57.6,33.13 74.95,111 48.19,157.54 l -319.93,556.43 c -27.07,46.91 -103.29,71.55 -160.95,38.41 -57.76,-33.13 -75.06,-111.66 -47.93,-158.63 l 319.87,-556.37 c 26.76,-46.54 102.98,-70.57 160.75,-37.38" /><path
         id="path40"
         style="fill:#ffffff;fill-opacity:1;fill-rule:nonzero;stroke:none"
         d="m 6462.88,4540.82 c 33.08,-57.53 110.93,-74.89 157.54,-48.12 l 556.3,319.93 c 46.97,27.01 71.73,103.29 38.6,160.88 -33.26,57.71 -111.66,75.07 -158.63,48.06 l -556.37,-319.93 c -46.6,-26.77 -70.69,-103.11 -37.44,-160.82" /><path
         id="path42"
         style="fill:#ffffff;fill-opacity:1;fill-rule:nonzero;stroke:none"
         d="m 2792.99,2430.42 c 33.07,-57.53 110.93,-74.88 157.53,-48.06 l 556.31,319.93 c 46.97,26.95 71.73,103.23 38.47,160.82 -33.07,57.77 -111.65,75.07 -158.5,48.12 L 2830.43,2591.3 c -46.61,-26.76 -70.64,-103.1 -37.44,-160.88" /><path
         id="path44"
         style="fill:#ffffff;fill-opacity:1;fill-rule:nonzero;stroke:none"
         d="m 3007.23,8605.31 h 109.71 l -54.25,327.92 h -1.21 z m -172.4,-259.21 154.31,817.4 h 156.73 l 155.53,-817.4 h -141.06 l -25.32,149.5 h -145.88 l -24.11,-149.5 h -130.2" /><path
         id="path46"
         style="fill:#ffffff;fill-opacity:1;fill-rule:nonzero;stroke:none"
         d="m 3351.99,9163.5 h 321.89 v -112.12 h -184.45 v -233.89 h 137.44 V 8706.58 H 3489.43 V 8346.1 h -137.44 v 817.4" /><path
         id="path48"
         style="fill:#ffffff;fill-opacity:1;fill-rule:nonzero;stroke:none"
         d="m 3728.1,9163.5 h 321.89 v -112.12 h -184.45 v -233.89 h 137.44 V 8706.58 H 3865.54 V 8346.1 H 3728.1 v 817.4" /><path
         id="path50"
         style="fill:#ffffff;fill-opacity:1;fill-rule:nonzero;stroke:none"
         d="m 4370.67,8535.38 v 438.84 c 0,49.43 -21.7,84.4 -71.14,84.4 -48.22,0 -69.92,-34.97 -69.92,-84.4 v -438.84 c 0,-49.43 21.7,-84.39 69.92,-84.39 49.44,0 71.14,34.96 71.14,84.39 z m -278.5,21.71 v 395.43 c 0,127.8 62.7,220.63 207.36,220.63 145.87,0 208.57,-92.83 208.57,-220.63 v -395.43 c 0,-126.6 -62.7,-220.63 -208.57,-220.63 -144.66,0 -207.36,94.03 -207.36,220.63" /><path
         id="path52"
         style="fill:#ffffff;fill-opacity:1;fill-rule:nonzero;stroke:none"
         d="M 4717.83,9051.38 V 8797 h 45.82 c 47.02,0 67.51,24.11 67.51,67.51 v 120.56 c 0,44.61 -20.49,66.31 -67.51,66.31 z m 0,-330.33 V 8346.1 h -137.44 v 817.4 h 200.14 c 138.64,0 189.28,-68.71 189.28,-183.25 v -104.89 c 0,-88.01 -31.35,-139.85 -109.72,-157.93 l 131.42,-371.33 h -144.68 l -129,374.95" /><path
         id="path54"
         style="fill:#ffffff;fill-opacity:1;fill-rule:nonzero;stroke:none"
         d="m 5233.81,8458.22 c 56.66,0 78.36,33.76 78.36,83.19 v 427.99 c 0,48.22 -21.7,81.98 -78.36,81.98 h -57.87 v -593.16 z m 215.79,485.86 v -378.56 c 0,-125.38 -51.85,-219.42 -198.92,-219.42 h -212.19 v 817.4 h 212.19 c 147.07,0 198.92,-92.83 198.92,-219.42" /><path
         id="path56"
         style="fill:#ffffff;fill-opacity:1;fill-rule:nonzero;stroke:none"
         d="m 5654.52,8605.31 h 109.71 l -54.25,327.92 h -1.21 z m -172.4,-259.21 154.31,817.4 h 156.73 l 155.53,-817.4 h -141.06 l -25.32,149.5 h -145.88 l -24.11,-149.5 h -130.2" /><path
         id="path58"
         style="fill:#ffffff;fill-opacity:1;fill-rule:nonzero;stroke:none"
         d="m 6136.73,8713.81 v -255.59 h 60.28 c 45.81,0 67.51,22.91 67.51,66.31 v 122.98 c 0,43.39 -20.5,66.3 -68.72,66.3 z m 0,104.89 h 48.22 c 44.61,0 65.11,22.9 65.11,66.31 v 100.06 c 0,44.61 -20.5,66.31 -66.31,66.31 h -47.02 z m -137.44,344.8 h 198.92 c 137.44,0 183.24,-63.9 183.24,-179.64 v -83.18 c 0,-68.72 -25.31,-112.12 -81.97,-130.2 68.71,-15.68 102.47,-61.49 102.47,-136.24 v -108.5 c 0,-115.74 -51.83,-179.64 -189.27,-179.64 h -213.39 v 817.4" /><path
         id="path60"
         style="fill:#ffffff;fill-opacity:1;fill-rule:nonzero;stroke:none"
         d="m 6464.61,9163.5 h 137.44 v -705.28 h 163.96 V 8346.1 h -301.4 v 817.4" /><path
         id="path62"
         style="fill:#ffffff;fill-opacity:1;fill-rule:nonzero;stroke:none"
         d="m 6822.64,9163.5 h 327.93 v -112.12 h -190.48 v -233.89 h 136.23 v -110.91 h -136.23 v -248.36 h 190.48 V 8346.1 h -327.93 v 817.4" /><path
         id="path64"
         style="fill:#ffffff;fill-opacity:1;fill-rule:nonzero;stroke:none"
         d="M 7489.3,8605.31 H 7599 l -54.25,327.92 h -1.21 z m -172.4,-259.21 154.31,817.4 h 156.73 l 155.52,-817.4 h -141.05 l -25.32,149.5 h -145.88 l -24.11,-149.5 h -130.2" /><path
         id="path66"
         style="fill:#ffffff;fill-opacity:1;fill-rule:nonzero;stroke:none"
         d="M 7949.8,8859.69 V 8346.1 h -115.74 v 817.4 h 135.03 l 148.29,-468.98 v 468.98 h 114.53 v -817.4 h -120.55 l -161.56,513.59" /><path
         id="path68"
         style="fill:#ffffff;fill-opacity:1;fill-rule:nonzero;stroke:none"
         d="m 8499.52,8458.22 c 56.66,0 78.36,33.76 78.36,83.19 v 427.99 c 0,48.22 -21.7,81.98 -78.36,81.98 h -57.87 v -593.16 z m 215.8,485.86 v -378.56 c 0,-125.38 -51.85,-219.42 -198.93,-219.42 h -212.17 v 817.4 h 212.17 c 147.08,0 198.93,-92.83 198.93,-219.42" /><path
         id="path70"
         style="fill:#ffffff;fill-opacity:1;fill-rule:nonzero;stroke:none"
         d="m 2855.39,7356.86 v 393.38 c 0,127.13 59.97,219.48 203.89,219.48 151.12,0 193.09,-83.95 193.09,-203.89 v -95.95 h -124.73 v 106.75 c 0,50.37 -16.79,79.15 -65.96,79.15 -49.17,0 -69.56,-34.78 -69.56,-83.95 v -436.56 c 0,-49.17 20.39,-83.95 69.56,-83.95 49.17,0 65.96,31.18 65.96,79.16 v 149.91 h 124.73 v -140.32 c 0,-116.34 -47.97,-202.69 -193.09,-202.69 -143.92,0 -203.89,93.55 -203.89,219.48" /><path
         id="path72"
         style="fill:#ffffff;fill-opacity:1;fill-rule:nonzero;stroke:none"
         d="m 3338.71,7960.13 h 136.72 v -701.62 h 163.1 v -111.54 h -299.82 v 813.16" /><path
         id="path74"
         style="fill:#ffffff;fill-opacity:1;fill-rule:nonzero;stroke:none"
         d="m 3712.88,7960.13 h 326.22 v -111.54 h -189.49 v -232.68 h 135.52 v -110.33 h -135.52 v -247.07 h 189.49 v -111.54 h -326.22 v 813.16" /><path
         id="path76"
         style="fill:#ffffff;fill-opacity:1;fill-rule:nonzero;stroke:none"
         d="m 4274.17,7404.83 h 109.14 l -53.98,326.22 h -1.2 z m -171.51,-257.86 153.52,813.16 h 155.91 l 154.7,-813.16 h -140.32 l -25.17,148.72 h -145.12 l -23.99,-148.72 h -129.53" /><path
         id="path78"
         style="fill:#ffffff;fill-opacity:1;fill-rule:nonzero;stroke:none"
         d="m 4750.27,7657.89 v -510.92 h -115.14 v 813.16 h 134.33 l 147.52,-466.54 v 466.54 h 113.94 v -813.16 h -119.94 l -160.71,510.92" /><path
         id="path80"
         style="fill:#ffffff;fill-opacity:1;fill-rule:nonzero;stroke:none"
         d="m 5396.69,7960.13 h 326.22 v -111.54 h -189.49 v -232.68 h 135.52 v -110.33 h -135.52 v -247.07 h 189.49 v -111.54 h -326.22 v 813.16" /><path
         id="path82"
         style="fill:#ffffff;fill-opacity:1;fill-rule:nonzero;stroke:none"
         d="m 5919.59,7657.89 v -510.92 h -115.14 v 813.16 h 134.33 l 147.52,-466.54 v 466.54 h 113.93 V 7146.97 H 6080.3 l -160.71,510.92" /><path
         id="path84"
         style="fill:#ffffff;fill-opacity:1;fill-rule:nonzero;stroke:none"
         d="m 6288.97,7960.13 h 326.21 v -111.54 h -189.49 v -232.68 h 135.53 v -110.33 h -135.53 v -247.07 h 189.49 v -111.54 h -326.21 v 813.16" /><path
         id="path86"
         style="fill:#ffffff;fill-opacity:1;fill-rule:nonzero;stroke:none"
         d="m 6834.66,7848.59 v -253.06 h 45.57 c 46.78,0 67.16,23.98 67.16,67.16 v 119.93 c 0,44.38 -20.38,65.97 -67.16,65.97 z m 0,-328.62 v -373 h -136.73 v 813.16 h 199.09 c 137.93,0 188.3,-68.37 188.3,-182.3 v -104.35 c 0,-87.55 -31.18,-139.12 -109.14,-157.11 l 130.72,-369.4 h -143.91 l -128.33,373" /><path
         id="path88"
         style="fill:#ffffff;fill-opacity:1;fill-rule:nonzero;stroke:none"
         d="m 7377.95,7581.13 h 194.29 v -434.16 h -98.35 v 88.75 c -17.98,-61.16 -56.36,-98.34 -130.72,-98.34 -117.53,0 -171.5,93.55 -171.5,219.48 v 393.38 c 0,127.13 61.17,219.48 205.08,219.48 151.12,0 195.49,-83.95 195.49,-203.89 v -71.96 h -124.73 v 82.76 c 0,50.37 -19.19,79.15 -68.36,79.15 -49.16,0 -70.75,-34.78 -70.75,-83.95 v -436.56 c 0,-49.17 20.39,-83.95 67.15,-83.95 44.38,0 67.16,25.19 67.16,77.95 v 143.92 h -64.76 v 107.94" /><path
         id="path90"
         style="fill:#ffffff;fill-opacity:1;fill-rule:nonzero;stroke:none"
         d="M 7926.03,7456.4 V 7146.97 H 7789.3 v 309.43 l -152.31,503.73 h 142.72 l 82.76,-308.23 h 1.19 l 82.75,308.23 h 130.74 L 7926.03,7456.4" /></g></g></svg>