<?xml version="1.0" encoding="UTF-8" standalone="no"?>
<svg
   xmlns:dc="http://purl.org/dc/elements/1.1/"
   xmlns:cc="http://creativecommons.org/ns#"
   xmlns:rdf="http://www.w3.org/1999/02/22-rdf-syntax-ns#"
   xmlns:svg="http://www.w3.org/2000/svg"
   xmlns="http://www.w3.org/2000/svg"
   viewBox="0 0 1333.3333 1333.3733"
   height="1333.3733"
   width="1333.3333"
   xml:space="preserve"
   id="svg2"
   version="1.1"><metadata
     id="metadata8"><rdf:RDF><cc:Work
         rdf:about=""><dc:format>image/svg+xml</dc:format><dc:type
           rdf:resource="http://purl.org/dc/dcmitype/StillImage" /></cc:Work></rdf:RDF></metadata><defs
     id="defs6" /><g
     transform="matrix(1.3333333,0,0,-1.3333333,0,1333.3733)"
     id="g10"><g
       transform="scale(0.1)"
       id="g12"><path
         id="path14"
         style="fill:#9c1545;fill-opacity:1;fill-rule:nonzero;stroke:none"
         d="M 0,0 H 10000 V 10000.3 H 0 Z" /><path
         id="path16"
         style="fill:#ffffff;fill-opacity:1;fill-rule:nonzero;stroke:none"
         d="m 1603.98,7603.62 c 0,-121.98 -44.6,-208.22 -166.46,-208.22 -119.07,0 -163.61,86.24 -163.61,208.22 v 327.15 c 0,121.86 44.54,208.16 163.61,208.16 121.86,0 166.46,-86.3 166.46,-208.16 z m -318.23,1115.1 c 0,122.09 41.74,193.46 151.77,193.46 112.87,0 154.62,-71.37 154.62,-193.46 v -136.67 c 0,-121.92 -41.75,-193.46 -154.62,-193.46 -110.03,0 -151.77,71.54 -151.77,193.46 z M 1943.03,7639.3 v 220.1 c 0,193.23 -68.33,333.05 -225.99,404.47 133.69,65.3 196.25,184.25 196.25,350.83 v 83.38 c 0,315.2 -163.54,484.69 -475.77,484.69 -309.25,0 -469.954,-169.49 -469.954,-484.69 v -83.38 c 0,-163.61 59.594,-285.53 190.314,-350.83 -157.6,-71.42 -223.079,-211.24 -223.079,-404.47 v -220.1 c 0,-306.28 145.829,-520.44 502.719,-520.44 359.74,0 505.51,214.16 505.51,520.44" /><path
         id="path18"
         style="fill:#ffffff;fill-opacity:1;fill-rule:nonzero;stroke:none"
         d="M 6897.45,5080.37 5881.03,4113.48 c -38.35,-38.18 -58.02,-66.27 -58.02,-145.23 V 1258.34 c 0,-31.8 25.98,-57.83 58.02,-57.83 h 1049.92 c 31.98,0 57.83,26.03 57.83,57.83 v 3797.64 c 0,31.98 -25,90.36 -91.33,24.39" /><path
         id="path20"
         style="fill:#ffffff;fill-opacity:1;fill-rule:nonzero;stroke:none"
         d="M 3969.25,3820.66 2952.72,2853.88 c -38.24,-38.23 -57.96,-66.26 -57.96,-145.09 V 1258.34 c 0,-31.67 26.03,-57.71 57.96,-57.71 h 1049.97 c 32.05,0 57.9,26.04 57.9,57.71 v 2538.05 c 0,32.04 -25.25,90.55 -91.34,24.27" /><path
         id="path22"
         style="fill:#ffffff;fill-opacity:1;fill-rule:nonzero;stroke:none"
         d="m 7359.45,6252.94 c 0.37,7.71 -2.37,15.96 -8.62,22.03 -5.34,5.21 -12.19,7.64 -18.81,8.25 l -5.58,-0.36 -8.32,-0.49 -778.29,-175.56 -14.14,-1.46 c -5.58,-1.09 -10.86,-3.88 -15.17,-7.95 -11.47,-11.59 -11.47,-30.28 0,-41.87 l 8.8,-8.8 177.75,-177.69 -1763.58,-1763.57 -814.52,814.58 c -9.23,9.28 -23.85,9.28 -33.14,0 l -221.01,-221.09 c -0.18,0 -0.18,-0.24 -0.18,-0.24 L 2558.92,3393.26 c -9.04,-9.23 -9.04,-24.16 0,-33.2 l 221.33,-221.19 c 9.04,-9.17 23.79,-9.17 32.89,0 l 1289.44,1289.14 591.08,-591.14 c 0.6,-0.91 0.91,-1.88 1.88,-2.79 l 221.08,-220.83 c 9.16,-9.29 23.9,-9.29 33.13,0 l 2001.53,2001.52 186.67,-186.54 c 11.47,-11.59 30.16,-11.59 41.5,0 5.47,5.46 8.14,12.13 8.5,19.17 l 0.12,2.49 170.96,794.5 0.42,8.55" /><path
         id="path24"
         style="fill:#ffffff;fill-opacity:1;fill-rule:nonzero;stroke:none"
         d="m 5439.12,3650.99 -491.8,-495.86 c -9.34,-7.71 -23,-7.46 -31.68,1.21 l -445.55,454.17 c -81.56,81.26 -99.16,15.36 -99.16,-16.57 V 1258.46 c 0,-31.79 25.61,-57.83 57.53,-57.83 h 1050.23 c 31.79,0 57.77,26.04 57.77,57.83 v 2374.2 c 0,31.92 -25.19,90.55 -97.34,18.33" /><path
         id="path26"
         style="fill:#ffffff;fill-opacity:1;fill-rule:nonzero;stroke:none"
         d="m 2882.19,8458.22 c 56.66,0 78.36,33.76 78.36,83.19 v 427.99 c 0,48.22 -21.7,81.98 -78.36,81.98 h -57.86 v -593.16 z m 215.8,485.85 v -378.55 c 0,-125.38 -51.84,-219.42 -198.92,-219.42 h -212.18 v 817.4 h 212.18 c 147.08,0 198.92,-92.83 198.92,-219.43" /><path
         id="path28"
         style="fill:#ffffff;fill-opacity:1;fill-rule:nonzero;stroke:none"
         d="m 3184.76,9163.5 h 327.93 V 9051.38 H 3322.2 v -233.89 h 136.23 V 8706.57 H 3322.2 v -248.35 h 190.49 V 8346.1 h -327.93 v 817.4" /><path
         id="path30"
         style="fill:#ffffff;fill-opacity:1;fill-rule:nonzero;stroke:none"
         d="m 3582.59,8557.08 v 395.44 c 0,127.79 60.28,220.62 204.95,220.62 151.9,0 194.09,-84.39 194.09,-204.95 v -96.45 h -125.38 v 107.3 c 0,50.64 -16.87,79.57 -66.3,79.57 -49.42,0 -69.92,-34.97 -69.92,-84.39 v -438.84 c 0,-49.43 20.5,-84.39 69.92,-84.39 49.43,0 66.3,31.34 66.3,79.57 v 150.7 h 125.38 V 8540.2 c 0,-116.94 -48.22,-203.74 -194.09,-203.74 -144.67,0 -204.95,94.03 -204.95,220.62" /><path
         id="path32"
         style="fill:#ffffff;fill-opacity:1;fill-rule:nonzero;stroke:none"
         d="m 4064.79,9163.5 h 327.93 v -112.12 h -190.49 v -233.89 h 136.23 v -110.92 h -136.23 v -248.35 h 190.49 V 8346.1 h -327.93 v 817.4" /><path
         id="path34"
         style="fill:#ffffff;fill-opacity:1;fill-rule:nonzero;stroke:none"
         d="M 4590.41,8859.68 V 8346.1 h -115.74 v 817.4 h 135.03 l 148.29,-468.98 v 468.98 h 114.52 v -817.4 h -120.54 l -161.56,513.58" /><path
         id="path36"
         style="fill:#ffffff;fill-opacity:1;fill-rule:nonzero;stroke:none"
         d="M 4943.61,9163.5 H 5308.9 V 9051.38 H 5195.57 V 8346.1 h -138.64 v 705.28 h -113.32 v 112.12" /><path
         id="path38"
         style="fill:#ffffff;fill-opacity:1;fill-rule:nonzero;stroke:none"
         d="m 5812.8,8851.25 -77.15,-505.15 h -129 l -109.71,817.4 h 132.62 l 63.9,-518.41 h 1.2 l 68.72,518.41 h 112.11 l 75.95,-518.41 h 1.2 l 62.7,518.41 h 115.73 L 6024.99,8346.1 H 5894.78 L 5814,8851.25 h -1.2" /><path
         id="path40"
         style="fill:#ffffff;fill-opacity:1;fill-rule:nonzero;stroke:none"
         d="m 6465,8535.38 v 438.84 c 0,49.42 -21.7,84.39 -71.13,84.39 -48.23,0 -69.93,-34.97 -69.93,-84.39 v -438.84 c 0,-49.43 21.7,-84.39 69.93,-84.39 49.43,0 71.13,34.96 71.13,84.39 z m -278.5,21.7 v 395.44 c 0,127.79 62.7,220.62 207.37,220.62 145.87,0 208.57,-92.83 208.57,-220.62 v -395.44 c 0,-126.59 -62.7,-220.62 -208.57,-220.62 -144.67,0 -207.37,94.03 -207.37,220.62" /><path
         id="path42"
         style="fill:#ffffff;fill-opacity:1;fill-rule:nonzero;stroke:none"
         d="m 6826.63,9051.38 v -254.39 h 45.81 c 47.02,0 67.52,24.11 67.52,67.52 v 120.55 c 0,44.62 -20.5,66.32 -67.52,66.32 z m 0,-330.34 V 8346.1 H 6689.2 v 817.4 h 200.12 c 138.65,0 189.28,-68.72 189.28,-183.25 v -104.89 c 0,-88.01 -31.35,-139.85 -109.72,-157.94 L 7100.3,8346.1 h -144.68 l -128.99,374.94" /><path
         id="path44"
         style="fill:#ffffff;fill-opacity:1;fill-rule:nonzero;stroke:none"
         d="M 7299.21,8743.95 V 8346.1 h -137.44 v 817.4 h 137.44 v -359.27 l 149.49,359.27 h 135.03 l -159.14,-367.71 162.75,-449.69 h -144.67 l -143.46,397.85" /><path
         id="path46"
         style="fill:#ffffff;fill-opacity:1;fill-rule:nonzero;stroke:none"
         d="m 7951.39,8605.3 h 109.71 l -54.25,327.92 h -1.21 z m -172.4,-259.2 154.32,817.4 h 156.73 l 155.52,-817.4 h -141.05 l -25.32,149.49 H 7933.31 L 7909.2,8346.1 h -130.21" /><path
         id="path48"
         style="fill:#ffffff;fill-opacity:1;fill-rule:nonzero;stroke:none"
         d="M 8407.08,8859.68 V 8346.1 h -115.74 v 817.4 h 135.03 l 148.29,-468.98 v 468.98 h 114.53 v -817.4 h -120.56 l -161.55,513.58" /><path
         id="path50"
         style="fill:#ffffff;fill-opacity:1;fill-rule:nonzero;stroke:none"
         d="m 8974.87,8458.22 c 56.66,0 78.36,33.76 78.36,83.19 v 427.99 c 0,48.22 -21.7,81.98 -78.36,81.98 H 8917 v -593.16 z m 215.8,485.85 v -378.55 c 0,-125.38 -51.84,-219.42 -198.92,-219.42 h -212.19 v 817.4 h 212.19 c 147.08,0 198.92,-92.83 198.92,-219.43" /><path
         id="path52"
         style="fill:#ffffff;fill-opacity:1;fill-rule:nonzero;stroke:none"
         d="m 2686.89,7963.05 h 327.92 v -112.12 h -190.48 v -233.89 h 136.22 v -110.91 h -136.22 v -248.36 h 190.48 v -112.11 h -327.92 v 817.39" /><path
         id="path54"
         style="fill:#ffffff;fill-opacity:1;fill-rule:nonzero;stroke:none"
         d="m 3075.06,7356.64 v 395.43 c 0,127.79 60.28,220.63 204.95,220.63 151.91,0 194.1,-84.4 194.1,-204.95 v -96.45 h -125.38 v 107.3 c 0,50.63 -16.87,79.57 -66.31,79.57 -49.42,0 -69.92,-34.97 -69.92,-84.4 v -438.84 c 0,-49.43 20.5,-84.39 69.92,-84.39 49.44,0 66.31,31.35 66.31,79.57 v 150.7 h 125.38 v -141.05 c 0,-116.95 -48.22,-203.75 -194.1,-203.75 -144.67,0 -204.95,94.04 -204.95,220.63" /><path
         id="path56"
         style="fill:#ffffff;fill-opacity:1;fill-rule:nonzero;stroke:none"
         d="m 3827.33,7334.93 v 438.84 c 0,49.43 -21.7,84.4 -71.14,84.4 -48.22,0 -69.92,-34.97 -69.92,-84.4 v -438.84 c 0,-49.43 21.7,-84.39 69.92,-84.39 49.44,0 71.14,34.96 71.14,84.39 z m -278.5,21.71 v 395.43 c 0,127.79 62.7,220.63 207.36,220.63 145.87,0 208.57,-92.84 208.57,-220.63 v -395.43 c 0,-126.59 -62.7,-220.63 -208.57,-220.63 -144.66,0 -207.36,94.04 -207.36,220.63" /><path
         id="path58"
         style="fill:#ffffff;fill-opacity:1;fill-rule:nonzero;stroke:none"
         d="m 4158.82,7659.24 v -513.58 h -115.74 v 817.39 h 135.03 l 148.29,-468.98 v 468.98 h 114.53 v -817.39 h -120.56 l -161.55,513.58" /><path
         id="path60"
         style="fill:#ffffff;fill-opacity:1;fill-rule:nonzero;stroke:none"
         d="m 4797.76,7334.93 v 438.84 c 0,49.43 -21.7,84.4 -71.14,84.4 -48.22,0 -69.92,-34.97 -69.92,-84.4 v -438.84 c 0,-49.43 21.7,-84.39 69.92,-84.39 49.44,0 71.14,34.96 71.14,84.39 z m -278.5,21.71 v 395.43 c 0,127.79 62.7,220.63 207.36,220.63 145.87,0 208.57,-92.84 208.57,-220.63 v -395.43 c 0,-126.59 -62.7,-220.63 -208.57,-220.63 -144.66,0 -207.36,94.04 -207.36,220.63" /><path
         id="path62"
         style="fill:#ffffff;fill-opacity:1;fill-rule:nonzero;stroke:none"
         d="m 5392.08,7676.12 h -3.62 l -92.84,-530.46 h -63.89 l -102.47,530.46 h -2.42 v -530.46 h -113.33 v 817.39 h 160.36 l 89.2,-460.54 h 1.22 l 79.56,460.54 h 173.61 v -817.39 h -125.38 v 530.46" /><path
         id="path64"
         style="fill:#ffffff;fill-opacity:1;fill-rule:nonzero;stroke:none"
         d="m 5595.78,7145.66 h 137.438 v 817.391 H 5595.78 Z" /><path
         id="path66"
         style="fill:#ffffff;fill-opacity:1;fill-rule:nonzero;stroke:none"
         d="m 5810.35,7356.64 v 395.43 c 0,127.79 60.28,220.63 204.95,220.63 151.91,0 194.1,-84.4 194.1,-204.95 v -96.45 h -125.38 v 107.3 c 0,50.63 -16.87,79.57 -66.31,79.57 -49.42,0 -69.92,-34.97 -69.92,-84.4 v -438.84 c 0,-49.43 20.5,-84.39 69.92,-84.39 49.44,0 66.31,31.35 66.31,79.57 v 150.7 h 125.38 v -141.05 c 0,-116.95 -48.22,-203.75 -194.1,-203.75 -144.67,0 -204.95,94.04 -204.95,220.63" /><path
         id="path68"
         style="fill:#ffffff;fill-opacity:1;fill-rule:nonzero;stroke:none"
         d="m 6650.61,7582.08 h 195.31 v -436.42 h -98.85 v 89.21 c -18.09,-61.48 -56.67,-98.86 -131.42,-98.86 -118.14,0 -172.4,94.04 -172.4,220.63 v 395.43 c 0,127.79 61.48,220.63 206.16,220.63 151.9,0 196.51,-84.4 196.51,-204.95 v -72.34 h -125.37 v 83.19 c 0,50.63 -19.3,79.57 -68.73,79.57 -49.43,0 -71.13,-34.97 -71.13,-84.4 v -438.84 c 0,-49.43 20.5,-84.39 67.51,-84.39 44.61,0 67.52,25.32 67.52,78.37 v 144.67 h -65.11 v 108.5" /><path
         id="path70"
         style="fill:#ffffff;fill-opacity:1;fill-rule:nonzero;stroke:none"
         d="m 7061.69,7850.93 v -254.38 h 45.81 c 47.02,0 67.52,24.11 67.52,67.51 v 120.56 c 0,44.61 -20.5,66.31 -67.52,66.31 z m 0,-330.33 v -374.94 h -137.44 v 817.39 h 200.13 c 138.65,0 189.28,-68.72 189.28,-183.25 v -104.89 c 0,-88 -31.35,-139.85 -109.72,-157.93 l 131.42,-371.32 h -144.68 l -128.99,374.94" /><path
         id="path72"
         style="fill:#ffffff;fill-opacity:1;fill-rule:nonzero;stroke:none"
         d="m 7654.81,7334.93 v 438.84 c 0,49.43 -21.7,84.4 -71.13,84.4 -48.22,0 -69.92,-34.97 -69.92,-84.4 v -438.84 c 0,-49.43 21.7,-84.39 69.92,-84.39 49.43,0 71.13,34.96 71.13,84.39 z m -278.49,21.71 v 395.43 c 0,127.79 62.69,220.63 207.36,220.63 145.88,0 208.56,-92.84 208.56,-220.63 v -395.43 c 0,-126.59 -62.68,-220.63 -208.56,-220.63 -144.67,0 -207.36,94.04 -207.36,220.63" /><path
         id="path74"
         style="fill:#ffffff;fill-opacity:1;fill-rule:nonzero;stroke:none"
         d="m 8144.25,7650.8 -77.16,-505.14 h -129.01 l -109.7,817.39 h 132.61 l 63.9,-518.41 h 1.2 l 68.72,518.41 h 112.12 l 75.96,-518.41 h 1.2 l 62.7,518.41 h 115.73 l -106.09,-817.39 h -130.2 l -80.78,505.14 h -1.2" /><path
         id="path76"
         style="fill:#ffffff;fill-opacity:1;fill-rule:nonzero;stroke:none"
         d="m 8504.69,7963.05 h 365.29 v -112.12 h -113.33 v -705.27 h -138.63 v 705.27 h -113.33 v 112.12" /><path
         id="path78"
         style="fill:#ffffff;fill-opacity:1;fill-rule:nonzero;stroke:none"
         d="m 9182.2,7506.13 h -132.62 v -360.47 h -137.44 v 817.39 h 137.44 v -346.01 h 132.62 v 346.01 h 138.64 V 7145.66 H 9182.2 v 360.47" /></g></g></svg>