<?xml version="1.0" encoding="UTF-8" standalone="no"?>
<svg
   xmlns:dc="http://purl.org/dc/elements/1.1/"
   xmlns:cc="http://creativecommons.org/ns#"
   xmlns:rdf="http://www.w3.org/1999/02/22-rdf-syntax-ns#"
   xmlns:svg="http://www.w3.org/2000/svg"
   xmlns="http://www.w3.org/2000/svg"
   viewBox="0 0 1333.3333 1333.36"
   height="1333.36"
   width="1333.3333"
   xml:space="preserve"
   id="svg2"
   version="1.1"><metadata
     id="metadata8"><rdf:RDF><cc:Work
         rdf:about=""><dc:format>image/svg+xml</dc:format><dc:type
           rdf:resource="http://purl.org/dc/dcmitype/StillImage" /></cc:Work></rdf:RDF></metadata><defs
     id="defs6" /><g
     transform="matrix(1.3333333,0,0,-1.3333333,0,1333.36)"
     id="g10"><g
       transform="scale(0.1)"
       id="g12"><path
         id="path14"
         style="fill:#f25b2f;fill-opacity:1;fill-rule:nonzero;stroke:none"
         d="M 0,0 H 10000 V 10000.2 H 0 Z" /><path
         id="path16"
         style="fill:#ffffff;fill-opacity:1;fill-rule:nonzero;stroke:none"
         d="m 1495.53,8345.64 c -5.94,-112.87 -53.46,-184.21 -160.45,-184.21 -115.79,0 -160.51,71.34 -160.51,202.17 v 350.7 c 0,127.81 47.45,202.06 163.48,202.06 112.94,0 157.48,-77.23 157.48,-202.06 z m 336.02,309.13 c 0,312.2 -136.85,538.01 -493.5,538.01 -359.738,0 -499.316,-196.07 -499.316,-508.21 V 8387.3 c 0,-329.97 130.657,-496.38 374.546,-496.38 142.68,0 228.79,65.48 279.34,163.4 h 2.91 v -433.84 c 0,-121.86 -47.57,-208.12 -169.37,-208.12 -121.92,0 -166.46,71.36 -166.46,196.23 v 133.68 H 850.508 v -107.04 c 0,-297.18 107.113,-505.24 481.662,-505.24 356.52,0 499.38,228.87 499.38,543.98 v 980.8" /><path
         id="path18"
         style="fill:#ffffff;fill-opacity:1;fill-rule:nonzero;stroke:none"
         d="M 7432.88,1984.44 6365.73,1368.57 v 1231.92 l 1067.15,616.13 z M 3907.6,1368.57 v 1138.31 l 985.83,-569.26 z m -162.15,0 -1066.98,615.87 v 1232.18 l 1066.98,-616.13 z m 1147.98,3407.7 -985.83,-569.29 v 1138.43 z m 1310.14,-569.26 -985.71,569.26 985.71,569.14 z m -985.71,-849.96 1066.79,615.83 1067.09,-615.8 -1067.09,-616.11 z m -243.29,140.46 -985.83,569.04 985.83,569.27 z m 1147.86,569.02 -985.71,-568.99 v 1138.28 z m -1147.86,-1988.46 -985.9,569.27 985.9,569.28 z M 7554.5,3427.32 6365.73,4113.38 v 1372.49 c 0,28.97 -15.42,55.74 -40.55,70.24 l -1228.99,709.6 c -25.13,14.44 -55.96,14.44 -81.08,0 l -1229.13,-709.6 c -25.12,-14.5 -40.53,-41.27 -40.53,-70.24 V 4113.38 L 2556.86,3427.32 c -25.12,-14.5 -40.53,-41.26 -40.53,-70.24 V 1937.62 c 0,-28.98 15.41,-55.74 40.53,-70.25 L 3785.98,1157.9 c 12.57,-7.22 26.53,-10.86 40.55,-10.86 14.01,0 27.97,3.64 40.53,10.86 l 1188.59,686.08 1188.46,-686.08 c 12.56,-7.22 26.52,-10.86 40.54,-10.86 14.02,0 27.98,3.61 40.53,10.86 l 1229.32,709.47 c 25.12,14.48 40.53,41.27 40.53,70.25 v 1419.46 c 0,28.98 -15.41,55.77 -40.53,70.24" /><path
         id="path20"
         style="fill:#ffffff;fill-opacity:1;fill-rule:nonzero;stroke:none"
         d="m 2360.69,8366.81 h 131.059 v 779.43 H 2360.69 Z" /><path
         id="path22"
         style="fill:#ffffff;fill-opacity:1;fill-rule:nonzero;stroke:none"
         d="m 2660.73,8856.54 v -489.73 h -110.36 v 779.43 h 128.75 l 141.41,-447.2 v 447.2 h 109.2 v -779.43 h -114.96 l -154.04,489.73" /><path
         id="path24"
         style="fill:#ffffff;fill-opacity:1;fill-rule:nonzero;stroke:none"
         d="m 3173.44,8473.73 c 54.03,0 74.72,32.18 74.72,79.32 v 408.1 c 0,45.99 -20.69,78.18 -74.72,78.18 h -55.18 v -565.6 z m 205.78,463.28 v -360.97 c 0,-119.56 -49.44,-209.23 -189.69,-209.23 h -202.32 v 779.43 h 202.32 c 140.25,0 189.69,-88.52 189.69,-209.23" /><path
         id="path26"
         style="fill:#ffffff;fill-opacity:1;fill-rule:nonzero;stroke:none"
         d="M 3817.22,9146.24 V 8556.5 c 0,-120.71 -51.73,-198.88 -185.09,-198.88 -137.95,0 -195.43,78.17 -195.43,198.88 v 589.74 h 131.05 v -602.39 c 0,-45.98 18.39,-77.02 64.38,-77.02 45.98,0 64.37,31.04 64.37,77.02 v 602.39 h 120.72" /><path
         id="path28"
         style="fill:#ffffff;fill-opacity:1;fill-rule:nonzero;stroke:none"
         d="m 3867.8,8534.65 v 104.62 h 121.86 v -106.92 c 0,-43.68 19.54,-68.97 64.37,-68.97 41.39,0 59.78,27.59 59.78,68.97 v 29.89 c 0,44.84 -18.39,72.43 -58.63,110.36 l -77.02,77.03 c -74.72,73.57 -109.22,118.41 -109.22,208.08 v 26.44 c 0,96.56 56.34,171.29 183.94,171.29 131.05,0 182.79,-64.38 182.79,-177.04 v -63.23 H 4116.11 V 8983 c 0,44.83 -20.69,66.68 -62.08,66.68 -36.78,0 -62.08,-20.7 -62.08,-64.39 v -16.09 c 0,-43.68 24.14,-68.97 62.08,-105.76 l 83.93,-82.78 c 71.27,-72.42 105.76,-116.1 105.76,-202.32 v -37.94 c 0,-106.91 -57.48,-182.78 -190.84,-182.78 -133.35,0 -185.08,74.72 -185.08,177.03" /><path
         id="path30"
         style="fill:#ffffff;fill-opacity:1;fill-rule:nonzero;stroke:none"
         d="m 4251.78,9146.24 h 348.32 v -106.91 h -108.06 v -672.52 h -132.21 v 672.52 h -108.05 v 106.91" /><path
         id="path32"
         style="fill:#ffffff;fill-opacity:1;fill-rule:nonzero;stroke:none"
         d="m 4774.83,9039.33 v -242.57 h 43.68 c 44.83,0 64.37,22.99 64.37,64.38 v 114.96 c 0,42.53 -19.54,63.23 -64.37,63.23 z m 0,-314.99 v -357.53 h -131.05 v 779.43 h 190.82 c 132.21,0 180.49,-65.53 180.49,-174.74 v -100.01 c 0,-83.93 -29.9,-133.36 -104.61,-150.6 l 125.3,-354.08 h -137.95 l -123,357.53" /><path
         id="path34"
         style="fill:#ffffff;fill-opacity:1;fill-rule:nonzero;stroke:none"
         d="m 5295.59,8663.41 v -296.6 h -131.05 v 296.6 l -146.01,482.83 h 136.81 l 79.32,-295.45 h 1.15 l 79.33,295.45 h 125.3 l -144.85,-482.83" /><path
         id="path36"
         style="fill:#ffffff;fill-opacity:1;fill-rule:nonzero;stroke:none"
         d="m 5553.1,8481.77 -66.68,-175.89 h -73.57 l 16.09,186.24 h 124.16 v -10.35" /><path
         id="path38"
         style="fill:#ffffff;fill-opacity:1;fill-rule:nonzero;stroke:none"
         d="m 5714.05,8366.81 h 131.051 v 779.43 H 5714.05 Z" /><path
         id="path40"
         style="fill:#ffffff;fill-opacity:1;fill-rule:nonzero;stroke:none"
         d="m 6014.08,8856.54 v -489.73 h -110.36 v 779.43 h 128.75 l 141.41,-447.2 v 447.2 h 109.2 v -779.43 h -114.96 l -154.04,489.73" /><path
         id="path42"
         style="fill:#ffffff;fill-opacity:1;fill-rule:nonzero;stroke:none"
         d="m 6450.93,8856.54 v -489.73 h -110.36 v 779.43 h 128.75 l 141.4,-447.2 v 447.2 h 109.21 v -779.43 h -114.96 l -154.04,489.73" /><path
         id="path44"
         style="fill:#ffffff;fill-opacity:1;fill-rule:nonzero;stroke:none"
         d="m 7042.96,8547.3 v 418.45 c 0,47.14 -20.7,80.48 -67.82,80.48 -45.99,0 -66.68,-33.34 -66.68,-80.48 V 8547.3 c 0,-47.13 20.69,-80.47 66.68,-80.47 47.12,0 67.82,33.34 67.82,80.47 z m -265.55,20.69 v 377.07 c 0,121.85 59.77,210.38 197.73,210.38 139.1,0 198.87,-88.53 198.87,-210.38 v -377.07 c 0,-120.7 -59.77,-210.37 -198.87,-210.37 -137.96,0 -197.73,89.67 -197.73,210.37" /><path
         id="path46"
         style="fill:#ffffff;fill-opacity:1;fill-rule:nonzero;stroke:none"
         d="M 7651.09,9146.24 7502.8,8366.81 h -142.56 l -148.29,779.43 h 133.35 l 89.67,-543.76 h 1.15 l 91.96,543.76 h 123.01" /><path
         id="path48"
         style="fill:#ffffff;fill-opacity:1;fill-rule:nonzero;stroke:none"
         d="m 7774.09,8613.98 h 104.61 l -51.73,312.69 h -1.15 z m -164.38,-247.17 147.13,779.43 h 149.45 l 148.3,-779.43 h -134.5 l -24.14,142.55 h -139.11 l -22.97,-142.55 h -124.16" /><path
         id="path50"
         style="fill:#ffffff;fill-opacity:1;fill-rule:nonzero;stroke:none"
         d="m 8018.95,9146.24 h 348.32 v -106.91 h -108.05 v -672.52 h -132.21 v 672.52 h -108.06 v 106.91" /><path
         id="path52"
         style="fill:#ffffff;fill-opacity:1;fill-rule:nonzero;stroke:none"
         d="m 8410.96,8366.81 h 131.051 v 779.43 H 8410.96 Z" /><path
         id="path54"
         style="fill:#ffffff;fill-opacity:1;fill-rule:nonzero;stroke:none"
         d="m 8866.18,8547.3 v 418.45 c 0,47.14 -20.69,80.48 -67.82,80.48 -45.99,0 -66.67,-33.34 -66.67,-80.48 V 8547.3 c 0,-47.13 20.68,-80.47 66.67,-80.47 47.13,0 67.82,33.34 67.82,80.47 z m -265.55,20.69 v 377.07 c 0,121.85 59.78,210.38 197.73,210.38 139.1,0 198.88,-88.53 198.88,-210.38 v -377.07 c 0,-120.7 -59.78,-210.37 -198.88,-210.37 -137.95,0 -197.73,89.67 -197.73,210.37" /><path
         id="path56"
         style="fill:#ffffff;fill-opacity:1;fill-rule:nonzero;stroke:none"
         d="m 9165.08,8856.54 v -489.73 h -110.36 v 779.43 h 128.75 l 141.4,-447.2 v 447.2 h 109.21 v -779.43 h -114.96 l -154.04,489.73" /><path
         id="path58"
         style="fill:#ffffff;fill-opacity:1;fill-rule:nonzero;stroke:none"
         d="m 2503.85,7412.8 h 104.61 l -51.73,312.69 h -1.15 z m -164.4,-247.16 147.15,779.42 h 149.44 l 148.3,-779.42 h -134.5 l -24.14,142.54 h -139.1 l -22.99,-142.54 h -124.16" /><path
         id="path60"
         style="fill:#ffffff;fill-opacity:1;fill-rule:nonzero;stroke:none"
         d="m 2942.98,7655.36 v -489.72 h -110.35 v 779.42 h 128.74 l 141.4,-447.19 v 447.19 h 109.21 v -779.42 h -114.96 l -154.04,489.72" /><path
         id="path62"
         style="fill:#ffffff;fill-opacity:1;fill-rule:nonzero;stroke:none"
         d="m 3467.19,7272.55 c 54.03,0 74.72,32.19 74.72,79.32 v 408.11 c 0,45.98 -20.69,78.17 -74.72,78.17 h -55.18 v -565.6 z m 205.78,463.29 v -360.98 c 0,-119.56 -49.44,-209.22 -189.69,-209.22 h -202.32 v 779.42 h 202.32 c 140.25,0 189.69,-88.52 189.69,-209.22" /><path
         id="path64"
         style="fill:#ffffff;fill-opacity:1;fill-rule:nonzero;stroke:none"
         d="m 3856.9,7165.64 h 131.062 v 779.418 H 3856.9 Z" /><path
         id="path66"
         style="fill:#ffffff;fill-opacity:1;fill-rule:nonzero;stroke:none"
         d="m 4168.44,7655.36 v -489.72 h -110.36 v 779.42 h 128.75 l 141.4,-447.19 v 447.19 h 109.21 v -779.42 h -114.96 l -154.04,489.72" /><path
         id="path68"
         style="fill:#ffffff;fill-opacity:1;fill-rule:nonzero;stroke:none"
         d="m 4506.42,7945.06 h 306.94 v -106.91 h -175.89 v -223.02 h 131.05 v -105.76 h -131.05 v -343.73 h -131.05 v 779.42" /><path
         id="path70"
         style="fill:#ffffff;fill-opacity:1;fill-rule:nonzero;stroke:none"
         d="m 4996.13,7838.15 v -242.56 h 43.68 c 44.84,0 64.38,22.99 64.38,64.37 v 114.96 c 0,42.54 -19.54,63.23 -64.38,63.23 z m 0,-314.99 v -357.52 h -131.05 v 779.42 h 190.83 c 132.2,0 180.49,-65.52 180.49,-174.74 v -100.01 c 0,-83.92 -29.9,-133.36 -104.61,-150.6 l 125.3,-354.07 h -137.95 l -123.01,357.52" /><path
         id="path72"
         style="fill:#ffffff;fill-opacity:1;fill-rule:nonzero;stroke:none"
         d="m 5445.62,7412.8 h 104.61 l -51.73,312.69 h -1.15 z m -164.39,-247.16 147.15,779.42 h 149.44 l 148.3,-779.42 h -134.5 l -24.14,142.54 h -139.1 l -22.99,-142.54 h -124.16" /><path
         id="path74"
         style="fill:#ffffff;fill-opacity:1;fill-rule:nonzero;stroke:none"
         d="m 5756.01,7333.48 v 104.61 h 121.85 v -106.91 c 0,-43.69 19.54,-68.98 64.38,-68.98 41.38,0 59.77,27.59 59.77,68.98 v 29.89 c 0,44.83 -18.39,72.42 -58.62,110.36 l -77.02,77.02 c -74.72,73.58 -109.21,118.41 -109.21,208.08 v 26.44 c 0,96.57 56.33,171.29 183.92,171.29 131.06,0 182.8,-64.38 182.8,-177.04 V 7714 h -119.56 v 67.82 c 0,44.84 -20.7,66.68 -62.08,66.68 -36.79,0 -62.08,-20.7 -62.08,-64.38 v -16.1 c 0,-43.68 24.14,-68.97 62.08,-105.76 l 83.92,-82.77 c 71.27,-72.42 105.76,-116.11 105.76,-202.33 v -37.94 c 0,-106.91 -57.48,-182.78 -190.84,-182.78 -133.35,0 -185.07,74.72 -185.07,177.04" /><path
         id="path76"
         style="fill:#ffffff;fill-opacity:1;fill-rule:nonzero;stroke:none"
         d="m 6162.97,7945.06 h 348.32 v -106.91 h -108.06 v -672.51 h -132.21 v 672.51 h -108.05 v 106.91" /><path
         id="path78"
         style="fill:#ffffff;fill-opacity:1;fill-rule:nonzero;stroke:none"
         d="m 6697.52,7838.15 v -242.56 h 43.68 c 44.82,0 64.37,22.99 64.37,64.37 v 114.96 c 0,42.54 -19.55,63.23 -64.37,63.23 z m 0,-314.99 v -357.52 h -131.06 v 779.42 h 190.83 c 132.2,0 180.48,-65.52 180.48,-174.74 v -100.01 c 0,-83.92 -29.89,-133.36 -104.61,-150.6 l 125.31,-354.07 h -137.95 l -123,357.52" /><path
         id="path80"
         style="fill:#ffffff;fill-opacity:1;fill-rule:nonzero;stroke:none"
         d="m 7383.83,7945.06 v -589.74 c 0,-120.71 -51.73,-198.88 -185.09,-198.88 -137.95,0 -195.43,78.17 -195.43,198.88 v 589.74 h 131.05 v -602.39 c 0,-45.98 18.39,-77.02 64.38,-77.02 45.99,0 64.37,31.04 64.37,77.02 v 602.39 h 120.72" /><path
         id="path82"
         style="fill:#ffffff;fill-opacity:1;fill-rule:nonzero;stroke:none"
         d="m 7452.81,7366.82 v 377.06 c 0,121.86 57.48,210.38 195.43,210.38 144.84,0 185.08,-80.47 185.08,-195.43 v -91.97 h -119.55 v 102.32 c 0,48.28 -16.1,75.87 -63.22,75.87 -47.14,0 -66.68,-33.34 -66.68,-80.47 v -418.46 c 0,-47.13 19.54,-80.47 66.68,-80.47 47.12,0 63.22,29.89 63.22,75.87 v 143.71 h 119.55 v -134.51 c 0,-111.51 -45.99,-194.28 -185.08,-194.28 -137.95,0 -195.43,89.67 -195.43,210.38" /><path
         id="path84"
         style="fill:#ffffff;fill-opacity:1;fill-rule:nonzero;stroke:none"
         d="m 7855.16,7945.06 h 348.33 v -106.91 h -108.06 v -672.51 h -132.21 v 672.51 h -108.06 v 106.91" /><path
         id="path86"
         style="fill:#ffffff;fill-opacity:1;fill-rule:nonzero;stroke:none"
         d="m 8639.18,7945.06 v -589.74 c 0,-120.71 -51.73,-198.88 -185.09,-198.88 -137.95,0 -195.43,78.17 -195.43,198.88 v 589.74 h 131.06 v -602.39 c 0,-45.98 18.38,-77.02 64.37,-77.02 45.99,0 64.38,31.04 64.38,77.02 v 602.39 h 120.71" /><path
         id="path88"
         style="fill:#ffffff;fill-opacity:1;fill-rule:nonzero;stroke:none"
         d="m 8839.21,7838.15 v -242.56 h 43.68 c 44.83,0 64.37,22.99 64.37,64.37 v 114.96 c 0,42.54 -19.54,63.23 -64.37,63.23 z m 0,-314.99 v -357.52 h -131.05 v 779.42 h 190.82 c 132.21,0 180.49,-65.52 180.49,-174.74 v -100.01 c 0,-83.92 -29.89,-133.36 -104.61,-150.6 l 125.3,-354.07 h -137.94 l -123.01,357.52" /><path
         id="path90"
         style="fill:#ffffff;fill-opacity:1;fill-rule:nonzero;stroke:none"
         d="m 9145.01,7945.06 h 312.68 v -106.91 h -181.63 v -223.02 h 129.91 v -105.76 h -129.91 v -236.82 h 181.63 v -106.91 h -312.68 v 779.42" /></g></g></svg>