<?xml version="1.0" encoding="UTF-8" standalone="no"?>
<svg
   xmlns:dc="http://purl.org/dc/elements/1.1/"
   xmlns:cc="http://creativecommons.org/ns#"
   xmlns:rdf="http://www.w3.org/1999/02/22-rdf-syntax-ns#"
   xmlns:svg="http://www.w3.org/2000/svg"
   xmlns="http://www.w3.org/2000/svg"
   viewBox="0 0 1333.3333 1333.4133"
   height="1333.4133"
   width="1333.3333"
   xml:space="preserve"
   id="svg2"
   version="1.1"><metadata
     id="metadata8"><rdf:RDF><cc:Work
         rdf:about=""><dc:format>image/svg+xml</dc:format><dc:type
           rdf:resource="http://purl.org/dc/dcmitype/StillImage" /></cc:Work></rdf:RDF></metadata><defs
     id="defs6"><clipPath
       id="clipPath20"
       clipPathUnits="userSpaceOnUse"><path
         id="path18"
         d="M 0,10000.6 V 0 h 10000 v 10000.6 z" /></clipPath></defs><g
     transform="matrix(1.3333333,0,0,-1.3333333,0,1333.4133)"
     id="g10"><g
       transform="scale(0.1)"
       id="g12"><g
         id="g14"><g
           clip-path="url(#clipPath20)"
           id="g16"><path
             id="path22"
             style="fill:#b3802b;fill-opacity:1;fill-rule:nonzero;stroke:none"
             d="M 0,0 H 10000 V 10000.6 H 0 Z" /><path
             id="path24"
             style="fill:#ffffff;fill-opacity:1;fill-rule:nonzero;stroke:none"
             d="m 998.234,8686.58 h 3.036 V 7143.06 h 339 V 9159.39 H 1069.36 L 757.312,8793.57 V 8439.7 h 2.907 l 238.015,246.88" /><path
             id="path26"
             style="fill:#ffffff;fill-opacity:1;fill-rule:nonzero;stroke:none"
             d="m 1542.36,8742.95 v -243.77 h 309.25 v 252.81 c 0,121.86 59.6,157.55 130.85,157.55 65.54,0 121.98,-26.7 121.98,-151.72 v -166.4 c 0,-166.65 -14.81,-232.01 -125.01,-347.98 l -190.2,-202.27 c -184.37,-196.32 -252.94,-327.16 -252.94,-526.46 v -371.77 h 880.44 v 276.67 h -556.25 v 95.1 c 0,157.67 56.56,217.14 142.73,309.32 L 2220.35,8053 c 175.51,187.34 214.23,306.41 214.23,508.62 v 196.2 c 0,288.57 -139.7,425.29 -443.14,425.29 -297.49,0 -449.08,-157.59 -449.08,-440.16" /><path
             id="path28"
             style="fill:#ffffff;fill-opacity:1;fill-rule:nonzero;stroke:none"
             d="m 7738.74,4643.51 c -407.82,322.07 -896.83,356.85 -1088.18,356.85 -100.86,0 -194.26,-9.02 -262.65,-25.31 l -26.82,-6.19 c -258.29,-61.02 -690.62,-163.1 -1193.9,-787.69 l -14.74,-18.32 c -8.32,-11.9 -12.63,-24.61 -12.63,-37.81 0,-11.41 2.85,-22.34 8.86,-33.11 l 11.41,-18.75 c 83.08,-138.92 152.2,-259.59 207.01,-362.09 19.66,-38.05 72.15,-50.43 107.65,-15.08 3.46,4.64 7.04,9.5 9.41,13.23 434.7,601.22 775.4,681.33 1000.79,734.34 l 27.92,6.62 c 31.07,7.43 81.37,11.74 138.05,11.74 104.81,0 469.12,-17.45 753.31,-241.84 252.88,-199.6 381.12,-518.39 381.12,-947.5 0,-719.14 -347.98,-999.67 -639.94,-1108.39 -111.37,-41.63 -231.41,-62.75 -356.78,-62.75 -300.65,0 -532.05,120.31 -535.14,121.95 l -20.88,10.14 c -251.12,109.01 -626.04,336.29 -980.45,1048.12 -726.67,1459.43 -1337.07,1597.7 -1741.24,1689.28 l -21.24,4.7 c -30.95,7.04 -118.34,23.37 -260.47,23.37 -234.01,0 -684.24,-46 -1070.09,-353.99 -263.45,-210.13 -577.56,-618.34 -577.56,-1369.49 0,-457.67 94.24,-759.99 335.9,-1077.93 45.46,-62.01 466.56,-605.8 1275.04,-605.8 119.79,0 244.02,12.17 369.22,36.17 147.59,28.28 375.4,101.22 629.75,287.84 l 212.58,-191.78 c 23.73,-21.69 64.87,-19.42 86.24,4.01 10.38,11.01 15.89,25.82 15.35,40.39 l 164.4,1012.8 0.12,11.81 c -0.24,17.32 -7.77,33.71 -19.78,44.15 -10.8,10.22 -24.7,15.69 -42.6,15.69 -0.12,0 -0.31,0 -0.43,0 l -986.04,-272.55 -18.75,-3.1 c -12.44,-2.64 -23.43,-9.07 -31.38,-18.14 -11.16,-12.29 -16.87,-28.1 -15.96,-44.6 0.85,-16.42 8.19,-31.5 20.15,-42.12 l 204.33,-184.76 c -107.41,-65.88 -214.77,-109.46 -319.21,-129.72 -88.91,-16.97 -176.97,-25.59 -261.56,-25.59 -558.68,0 -833.59,366.71 -844.95,382.24 l -5.52,7.59 c -169.98,223.27 -227.39,413.34 -227.39,753.4 0,430.55 126.04,749.49 374.5,947.99 276.54,220.63 632.35,237.77 734.91,237.77 56.08,0 107,-4.25 139.71,-11.71 l 21.79,-4.92 c 322.66,-73 764.47,-173.02 1376.98,-1403.41 323.52,-649.53 729.22,-1074.43 1239.17,-1298.4 59.29,-30.26 375.53,-181.09 780.98,-181.09 189.29,0 372.56,32.49 544.97,96.61 297.85,111.18 990.78,491.08 990.78,1614.22 0,750.54 -318.73,1159.76 -586.12,1370.91" /><path
             id="path30"
             style="fill:#ffffff;fill-opacity:1;fill-rule:nonzero;stroke:none"
             d="m 3328.42,9051.67 v -254.38 h 45.81 c 47.02,0 67.52,24.11 67.52,67.52 v 120.55 c 0,44.61 -20.5,66.31 -67.52,66.31 z m 0,-330.33 V 8346.4 h -137.44 v 817.39 h 200.14 c 138.64,0 189.27,-68.72 189.27,-183.25 v -104.88 c 0,-88.01 -31.34,-139.85 -109.71,-157.94 l 131.41,-371.32 h -144.67 l -129,374.94" /><path
             id="path32"
             style="fill:#ffffff;fill-opacity:1;fill-rule:nonzero;stroke:none"
             d="m 3653.92,9163.79 h 327.92 v -112.12 h -190.49 v -233.89 h 136.23 v -110.91 h -136.23 v -248.35 h 190.49 V 8346.4 h -327.92 v 817.39" /><path
             id="path34"
             style="fill:#ffffff;fill-opacity:1;fill-rule:nonzero;stroke:none"
             d="m 4046.93,8522.41 v 109.72 h 127.79 v -112.12 c 0,-45.82 20.49,-72.34 67.51,-72.34 43.4,0 62.7,28.93 62.7,72.34 v 31.34 c 0,47.02 -19.3,75.95 -61.5,115.74 l -80.77,80.77 c -78.36,77.16 -114.53,124.18 -114.53,218.22 v 27.73 c 0,101.26 59.07,179.63 192.9,179.63 137.43,0 191.69,-67.51 191.69,-185.67 v -66.3 h -125.39 v 71.13 c 0,47.02 -21.7,69.92 -65.1,69.92 -38.57,0 -65.1,-21.7 -65.1,-67.51 v -16.88 c 0,-45.81 25.31,-72.33 65.1,-110.92 l 88.01,-86.8 c 74.74,-75.95 110.92,-121.76 110.92,-212.18 v -39.79 c 0,-112.12 -60.29,-191.69 -200.13,-191.69 -139.85,0 -194.1,78.37 -194.1,185.66" /><path
             id="path36"
             style="fill:#ffffff;fill-opacity:1;fill-rule:nonzero;stroke:none"
             d="m 4647.3,9051.67 v -321.89 h 50.62 c 47.02,0 67.51,22.9 67.51,67.51 v 188.07 c 0,44.61 -20.49,66.31 -67.51,66.31 z m -137.44,112.12 h 203.74 c 138.64,0 189.27,-68.72 189.27,-183.25 v -172.4 c 0,-114.53 -50.63,-184.46 -189.27,-184.46 h -66.3 V 8346.4 h -137.44 v 817.39" /><path
             id="path38"
             style="fill:#ffffff;fill-opacity:1;fill-rule:nonzero;stroke:none"
             d="m 5251.28,8535.68 v 438.83 c 0,49.43 -21.7,84.4 -71.13,84.4 -48.23,0 -69.93,-34.97 -69.93,-84.4 v -438.83 c 0,-49.43 21.7,-84.39 69.93,-84.39 49.43,0 71.13,34.96 71.13,84.39 z m -278.49,21.7 v 395.43 c 0,127.8 62.69,220.63 207.36,220.63 145.87,0 208.57,-92.83 208.57,-220.63 v -395.43 c 0,-126.59 -62.7,-220.63 -208.57,-220.63 -144.67,0 -207.36,94.04 -207.36,220.63" /><path
             id="path40"
             style="fill:#ffffff;fill-opacity:1;fill-rule:nonzero;stroke:none"
             d="M 5581.6,8859.98 V 8346.4 h -115.74 v 817.39 h 135.03 l 148.28,-468.97 v 468.97 H 5863.7 V 8346.4 h -120.56 l -161.54,513.58" /><path
             id="path42"
             style="fill:#ffffff;fill-opacity:1;fill-rule:nonzero;stroke:none"
             d="m 5934.81,8522.41 v 109.72 h 127.8 v -112.12 c 0,-45.82 20.48,-72.34 67.51,-72.34 43.39,0 62.69,28.93 62.69,72.34 v 31.34 c 0,47.02 -19.3,75.95 -61.49,115.74 l -80.77,80.77 c -78.36,77.16 -114.54,124.18 -114.54,218.22 v 27.73 c 0,101.26 59.08,179.63 192.9,179.63 137.44,0 191.69,-67.51 191.69,-185.67 v -66.3 h -125.39 v 71.13 c 0,47.02 -21.7,69.92 -65.09,69.92 -38.58,0 -65.1,-21.7 -65.1,-67.51 v -16.88 c 0,-45.81 25.31,-72.33 65.1,-110.92 l 88,-86.8 c 74.75,-75.95 110.92,-121.76 110.92,-212.18 v -39.79 c 0,-112.12 -60.28,-191.69 -200.13,-191.69 -139.85,0 -194.1,78.37 -194.1,185.66" /><path
             id="path44"
             style="fill:#ffffff;fill-opacity:1;fill-rule:nonzero;stroke:none"
             d="m 6397.74,8346.4 h 137.441 v 817.391 H 6397.74 Z" /><path
             id="path46"
             style="fill:#ffffff;fill-opacity:1;fill-rule:nonzero;stroke:none"
             d="m 6750.97,8714.1 v -255.58 h 60.28 c 45.81,0 67.51,22.9 67.51,66.31 v 122.97 c 0,43.4 -20.5,66.3 -68.72,66.3 z m 0,104.89 h 48.22 c 44.61,0 65.11,22.91 65.11,66.31 v 100.06 c 0,44.61 -20.5,66.31 -66.31,66.31 h -47.02 z m -137.44,344.8 h 198.92 c 137.44,0 183.25,-63.9 183.25,-179.63 v -83.19 c 0,-68.72 -25.32,-112.12 -81.98,-130.2 68.72,-15.68 102.48,-61.49 102.48,-136.23 v -108.51 c 0,-115.74 -51.85,-179.63 -189.28,-179.63 h -213.39 v 817.39" /><path
             id="path48"
             style="fill:#ffffff;fill-opacity:1;fill-rule:nonzero;stroke:none"
             d="m 7083.7,9163.79 h 137.44 v -705.27 h 163.97 V 8346.4 H 7083.7 v 817.39" /><path
             id="path50"
             style="fill:#ffffff;fill-opacity:1;fill-rule:nonzero;stroke:none"
             d="m 7446.56,9163.79 h 327.92 V 9051.67 H 7584 v -233.89 h 136.22 V 8706.87 H 7584 v -248.35 h 190.48 V 8346.4 h -327.92 v 817.39" /><path
             id="path52"
             style="fill:#ffffff;fill-opacity:1;fill-rule:nonzero;stroke:none"
             d="m 3190.98,7357.21 v 395.43 c 0,127.8 60.29,220.63 204.96,220.63 151.9,0 194.1,-84.4 194.1,-204.95 v -96.45 h -125.38 v 107.3 c 0,50.63 -16.88,79.57 -66.31,79.57 -49.43,0 -69.92,-34.97 -69.92,-84.4 V 7335.5 c 0,-49.42 20.49,-84.39 69.92,-84.39 49.43,0 66.31,31.35 66.31,79.57 v 150.7 h 125.38 v -141.05 c 0,-116.94 -48.23,-203.75 -194.1,-203.75 -144.67,0 -204.96,94.04 -204.96,220.63" /><path
             id="path54"
             style="fill:#ffffff;fill-opacity:1;fill-rule:nonzero;stroke:none"
             d="m 3955.31,7335.5 v 438.84 c 0,49.43 -21.7,84.4 -71.13,84.4 -48.22,0 -69.92,-34.97 -69.92,-84.4 V 7335.5 c 0,-49.42 21.7,-84.39 69.92,-84.39 49.43,0 71.13,34.97 71.13,84.39 z m -278.49,21.71 v 395.43 c 0,127.8 62.69,220.63 207.36,220.63 145.88,0 208.57,-92.83 208.57,-220.63 v -395.43 c 0,-126.59 -62.69,-220.63 -208.57,-220.63 -144.67,0 -207.36,94.04 -207.36,220.63" /><path
             id="path56"
             style="fill:#ffffff;fill-opacity:1;fill-rule:nonzero;stroke:none"
             d="m 4298.89,7659.81 v -513.58 h -115.75 v 817.39 h 135.03 l 148.29,-468.98 v 468.98 h 114.53 v -817.39 h -120.55 l -161.55,513.58" /><path
             id="path58"
             style="fill:#ffffff;fill-opacity:1;fill-rule:nonzero;stroke:none"
             d="m 4664.17,7322.24 v 109.71 h 127.78 v -112.11 c 0,-45.82 20.49,-72.34 67.51,-72.34 43.4,0 62.7,28.93 62.7,72.34 v 31.34 c 0,47.01 -19.3,75.95 -61.5,115.74 l -80.77,80.77 c -78.36,77.16 -114.52,124.18 -114.52,218.21 v 27.73 c 0,101.27 59.06,179.64 192.89,179.64 137.43,0 191.69,-67.52 191.69,-185.67 v -66.3 h -125.39 v 71.13 c 0,47.01 -21.7,69.92 -65.1,69.92 -38.57,0 -65.1,-21.7 -65.1,-67.51 v -16.88 c 0,-45.82 25.32,-72.33 65.1,-110.92 l 88.01,-86.8 c 74.75,-75.95 110.92,-121.76 110.92,-212.18 v -39.79 c 0,-112.12 -60.29,-191.69 -200.13,-191.69 -139.85,0 -194.09,78.37 -194.09,185.66" /><path
             id="path60"
             style="fill:#ffffff;fill-opacity:1;fill-rule:nonzero;stroke:none"
             d="m 5541.82,7963.62 v -618.47 c 0,-126.59 -54.25,-208.57 -194.11,-208.57 -144.66,0 -204.95,81.98 -204.95,208.57 v 618.47 h 137.44 v -631.73 c 0,-48.23 19.29,-80.78 67.51,-80.78 48.23,0 67.52,32.55 67.52,80.78 v 631.73 h 126.59" /><path
             id="path62"
             style="fill:#ffffff;fill-opacity:1;fill-rule:nonzero;stroke:none"
             d="m 6010.78,7676.69 h -3.62 l -92.84,-530.46 h -63.89 l -102.47,530.46 h -2.41 v -530.46 h -113.32 v 817.39 h 160.34 l 89.21,-460.54 h 1.21 l 79.56,460.54 h 173.61 v -817.39 h -125.38 v 530.46" /><path
             id="path64"
             style="fill:#ffffff;fill-opacity:1;fill-rule:nonzero;stroke:none"
             d="m 6363.99,7851.5 v -321.89 h 50.64 c 47.02,0 67.51,22.9 67.51,67.51 v 188.07 c 0,44.61 -20.49,66.31 -67.51,66.31 z m -137.44,112.12 h 203.75 c 138.64,0 189.28,-68.72 189.28,-183.25 v -172.4 c 0,-114.53 -50.64,-184.46 -189.28,-184.46 h -66.31 v -277.28 h -137.44 v 817.39" /><path
             id="path66"
             style="fill:#ffffff;fill-opacity:1;fill-rule:nonzero;stroke:none"
             d="m 6664.17,7963.62 h 365.3 V 7851.5 H 6916.14 V 7146.23 H 6777.5 v 705.27 h -113.33 v 112.12" /><path
             id="path68"
             style="fill:#ffffff;fill-opacity:1;fill-rule:nonzero;stroke:none"
             d="m 7094.55,7146.23 h 137.438 v 817.391 H 7094.55 Z" /><path
             id="path70"
             style="fill:#ffffff;fill-opacity:1;fill-rule:nonzero;stroke:none"
             d="m 7590.04,7335.5 v 438.84 c 0,49.43 -21.7,84.4 -71.13,84.4 -48.23,0 -69.93,-34.97 -69.93,-84.4 V 7335.5 c 0,-49.42 21.7,-84.39 69.93,-84.39 49.43,0 71.13,34.97 71.13,84.39 z m -278.5,21.71 v 395.43 c 0,127.8 62.7,220.63 207.37,220.63 145.86,0 208.56,-92.83 208.56,-220.63 v -395.43 c 0,-126.59 -62.7,-220.63 -208.56,-220.63 -144.67,0 -207.37,94.04 -207.37,220.63" /><path
             id="path72"
             style="fill:#ffffff;fill-opacity:1;fill-rule:nonzero;stroke:none"
             d="m 7922.75,7659.81 v -513.58 h -115.74 v 817.39 h 135.03 l 148.29,-468.98 v 468.98 h 114.53 v -817.39 h -120.55 l -161.56,513.58" /><path
             id="path74"
             style="fill:#ffffff;fill-opacity:1;fill-rule:nonzero;stroke:none"
             d="m 3341.69,6205.17 h 109.7 l -54.24,327.92 h -1.21 z m -172.4,-259.2 154.31,817.39 h 156.73 l 155.53,-817.39 H 3494.8 l -25.32,149.49 H 3323.6 l -24.11,-149.49 h -130.2" /><path
             id="path76"
             style="fill:#ffffff;fill-opacity:1;fill-rule:nonzero;stroke:none"
             d="m 3811.84,6459.55 v -513.58 h -115.73 v 817.39 h 135.02 l 148.29,-468.97 v 468.97 h 114.53 V 5945.97 H 3973.4 l -161.56,513.58" /><path
             id="path78"
             style="fill:#ffffff;fill-opacity:1;fill-rule:nonzero;stroke:none"
             d="m 4371.22,6058.09 c 56.66,0 78.36,33.76 78.36,83.19 v 427.98 c 0,48.23 -21.7,81.98 -78.36,81.98 h -57.87 v -593.15 z m 215.8,485.85 v -378.55 c 0,-125.38 -51.85,-219.42 -198.93,-219.42 h -212.18 v 817.39 h 212.18 c 147.08,0 198.93,-92.83 198.93,-219.42" /><path
             id="path80"
             style="fill:#ffffff;fill-opacity:1;fill-rule:nonzero;stroke:none"
             d="m 4936.61,6651.24 v -321.89 h 50.63 c 47.03,0 67.51,22.9 67.51,67.51 v 188.07 c 0,44.61 -20.48,66.31 -67.51,66.31 z m -137.44,112.12 h 203.75 c 138.64,0 189.28,-68.72 189.28,-183.25 v -172.4 c 0,-114.53 -50.64,-184.46 -189.28,-184.46 h -66.31 v -277.28 h -137.44 v 817.39" /><path
             id="path82"
             style="fill:#ffffff;fill-opacity:1;fill-rule:nonzero;stroke:none"
             d="m 5404.37,6651.24 v -254.38 h 45.81 c 47.03,0 67.52,24.11 67.52,67.52 v 120.55 c 0,44.61 -20.49,66.31 -67.52,66.31 z m 0,-330.33 v -374.94 h -137.44 v 817.39 h 200.14 c 138.64,0 189.28,-68.72 189.28,-183.25 v -104.88 c 0,-88.01 -31.35,-139.85 -109.72,-157.94 l 131.41,-371.32 h -144.67 l -129,374.94" /><path
             id="path84"
             style="fill:#ffffff;fill-opacity:1;fill-rule:nonzero;stroke:none"
             d="m 6013.17,6135.25 v 438.83 c 0,49.43 -21.7,84.4 -71.13,84.4 -48.22,0 -69.92,-34.97 -69.92,-84.4 v -438.83 c 0,-49.43 21.7,-84.39 69.92,-84.39 49.43,0 71.13,34.96 71.13,84.39 z m -278.49,21.7 v 395.43 c 0,127.8 62.69,220.63 207.36,220.63 145.88,0 208.57,-92.83 208.57,-220.63 v -395.43 c 0,-126.59 -62.69,-220.63 -208.57,-220.63 -144.67,0 -207.36,94.04 -207.36,220.63" /><path
             id="path86"
             style="fill:#ffffff;fill-opacity:1;fill-rule:nonzero;stroke:none"
             d="m 6427.89,6058.09 c 56.66,0 78.36,33.76 78.36,83.19 v 427.98 c 0,48.23 -21.7,81.98 -78.36,81.98 h -57.87 v -593.15 z m 215.8,485.85 v -378.55 c 0,-125.38 -51.85,-219.42 -198.93,-219.42 h -212.18 v 817.39 h 212.18 c 147.08,0 198.93,-92.83 198.93,-219.42" /><path
             id="path88"
             style="fill:#ffffff;fill-opacity:1;fill-rule:nonzero;stroke:none"
             d="m 7124.69,6763.36 v -618.47 c 0,-126.59 -54.25,-208.57 -194.11,-208.57 -144.66,0 -204.95,81.98 -204.95,208.57 v 618.47 h 137.44 v -631.73 c 0,-48.23 19.29,-80.77 67.51,-80.77 48.23,0 67.52,32.54 67.52,80.77 v 631.73 h 126.59" /><path
             id="path90"
             style="fill:#ffffff;fill-opacity:1;fill-rule:nonzero;stroke:none"
             d="m 7206.66,6156.95 v 395.43 c 0,127.8 60.28,220.63 204.95,220.63 151.9,0 194.1,-84.4 194.1,-204.95 v -96.45 h -125.38 v 107.3 c 0,50.63 -16.87,79.57 -66.31,79.57 -49.42,0 -69.92,-34.97 -69.92,-84.4 v -438.83 c 0,-49.43 20.5,-84.39 69.92,-84.39 49.44,0 66.31,31.34 66.31,79.57 v 150.69 h 125.38 v -141.05 c 0,-116.94 -48.22,-203.75 -194.1,-203.75 -144.67,0 -204.95,94.04 -204.95,220.63" /><path
             id="path92"
             style="fill:#ffffff;fill-opacity:1;fill-rule:nonzero;stroke:none"
             d="m 7668.38,6763.36 h 365.3 v -112.12 h -113.33 v -705.27 h -138.64 v 705.27 h -113.33 v 112.12" /><path
             id="path94"
             style="fill:#ffffff;fill-opacity:1;fill-rule:nonzero;stroke:none"
             d="m 8098.76,5945.97 h 137.438 v 817.391 H 8098.76 Z" /><path
             id="path96"
             style="fill:#ffffff;fill-opacity:1;fill-rule:nonzero;stroke:none"
             d="m 8594.25,6135.25 v 438.83 c 0,49.43 -21.7,84.4 -71.14,84.4 -48.22,0 -69.92,-34.97 -69.92,-84.4 v -438.83 c 0,-49.43 21.7,-84.39 69.92,-84.39 49.44,0 71.14,34.96 71.14,84.39 z m -278.5,21.7 v 395.43 c 0,127.8 62.7,220.63 207.36,220.63 145.87,0 208.57,-92.83 208.57,-220.63 v -395.43 c 0,-126.59 -62.7,-220.63 -208.57,-220.63 -144.66,0 -207.36,94.04 -207.36,220.63" /><path
             id="path98"
             style="fill:#ffffff;fill-opacity:1;fill-rule:nonzero;stroke:none"
             d="m 8926.97,6459.55 v -513.58 h -115.74 v 817.39 h 135.03 l 148.29,-468.97 v 468.97 h 114.53 v -817.39 h -120.56 l -161.55,513.58" /></g></g></g></g></svg>