<?xml version="1.0" encoding="UTF-8" standalone="no"?>
<svg
   xmlns:dc="http://purl.org/dc/elements/1.1/"
   xmlns:cc="http://creativecommons.org/ns#"
   xmlns:rdf="http://www.w3.org/1999/02/22-rdf-syntax-ns#"
   xmlns:svg="http://www.w3.org/2000/svg"
   xmlns="http://www.w3.org/2000/svg"
   viewBox="0 0 1333.3333 1333.3333"
   height="1333.3333"
   width="1333.3333"
   xml:space="preserve"
   id="svg2"
   version="1.1"><metadata
     id="metadata8"><rdf:RDF><cc:Work
         rdf:about=""><dc:format>image/svg+xml</dc:format><dc:type
           rdf:resource="http://purl.org/dc/dcmitype/StillImage" /></cc:Work></rdf:RDF></metadata><defs
     id="defs6" /><g
     transform="matrix(1.3333333,0,0,-1.3333333,0,1333.3333)"
     id="g10"><g
       transform="scale(0.1)"
       id="g12"><path
         id="path14"
         style="fill:#56c038;fill-opacity:1;fill-rule:nonzero;stroke:none"
         d="M 0,0 H 10000 V 10000 H 0 Z" /><path
         id="path16"
         style="fill:#ffffff;fill-opacity:1;fill-rule:nonzero;stroke:none"
         d="M 3195.64,9162.97 V 8345.2 h 301.48 v 112.15 h -163.97 v 705.62 h -137.51" /><path
         id="path18"
         style="fill:#ffffff;fill-opacity:1;fill-rule:nonzero;stroke:none"
         d="m 3571.89,8345.27 h 137.391 v 817.703 H 3571.89 Z" /><path
         id="path20"
         style="fill:#ffffff;fill-opacity:1;fill-rule:nonzero;stroke:none"
         d="m 3799.7,8345.2 h 137.39 v 360.71 h 137.51 v 110.92 h -137.51 v 234 h 184.36 v 112.14 H 3799.7 V 8345.2" /><path
         id="path22"
         style="fill:#ffffff;fill-opacity:1;fill-rule:nonzero;stroke:none"
         d="m 4193.92,8345.2 h 327.81 v 112.15 h -190.42 v 248.56 h 136.29 v 110.92 h -136.29 v 234 h 190.42 v 112.14 H 4193.92 V 8345.2" /><path
         id="path24"
         style="fill:#ffffff;fill-opacity:1;fill-rule:nonzero;stroke:none"
         d="m 732.23,8797.11 v -353.84 h 2.915 l 237.886,246.8 h 3.031 V 7146.72 H 1315.05 V 9162.97 H 1044.39 L 732.23,8797.11" /><path
         id="path26"
         style="fill:#ffffff;fill-opacity:1;fill-rule:nonzero;stroke:none"
         d="m 2120.96,8523.49 c -133.75,0 -231.82,-47.45 -285.47,-139.69 h -3.03 v 502.58 h 582.94 v 276.47 H 1523.33 V 8026.8 h 309.13 v 44.79 c 0,118.81 53.52,184.29 148.68,184.29 104.13,0 145.89,-71.42 145.89,-181.44 v -487.71 c 0,-106.93 -38.72,-181.32 -142.86,-181.32 -115.91,0 -157.41,77.31 -157.41,196.25 v 252.74 h -309.5 v -229.08 c 0,-306.2 121.98,-502.45 466.91,-502.45 342.03,0 481.72,181.44 481.72,460.95 v 493.65 c 0,318.22 -163.48,446.02 -344.93,446.02" /><path
         id="path28"
         style="fill:#ffffff;fill-opacity:1;fill-rule:nonzero;stroke:none"
         d="m 3472.55,7335.17 v 437.22 c 0,49.27 -21.61,84.11 -70.89,84.11 -48.06,0 -69.66,-34.84 -69.66,-84.11 v -437.22 c 0,-49.28 21.6,-84.17 69.66,-84.17 49.28,0 70.89,34.89 70.89,84.17 m -277.58,21.6 v 393.95 c 0,127.38 62.5,219.86 206.69,219.86 145.41,0 207.79,-92.48 207.79,-219.86 v -393.95 c 0,-126.16 -62.38,-219.85 -207.79,-219.85 -144.19,0 -206.69,93.69 -206.69,219.85" /><path
         id="path30"
         style="fill:#ffffff;fill-opacity:1;fill-rule:nonzero;stroke:none"
         d="m 3802.43,7658.24 v -511.67 h -115.3 v 814.42 h 134.6 l 147.7,-467.2 v 467.2 h 114.1 v -814.42 h -120.04 l -161.06,511.67" /><path
         id="path32"
         style="fill:#ffffff;fill-opacity:1;fill-rule:nonzero;stroke:none"
         d="m 4380.4,7960.99 h 136.91 v -702.71 h 163.48 V 7146.57 H 4380.4 v 814.42" /><path
         id="path34"
         style="fill:#ffffff;fill-opacity:1;fill-rule:nonzero;stroke:none"
         d="m 4892.95,7404.83 h 109.35 l -54.13,326.72 h -1.21 z m -171.86,-258.26 153.78,814.42 h 156.2 l 154.99,-814.42 h -140.54 l -25.25,148.91 h -145.4 l -23.91,-148.91 h -129.87" /><path
         id="path36"
         style="fill:#ffffff;fill-opacity:1;fill-rule:nonzero;stroke:none"
         d="m 5357.44,7658.24 v -511.67 h -115.43 v 814.42 h 134.6 l 147.71,-467.2 v 467.2 h 114.09 v -814.42 h -120.04 l -160.93,511.67" /><path
         id="path38"
         style="fill:#ffffff;fill-opacity:1;fill-rule:nonzero;stroke:none"
         d="m 5921.93,7258.28 c 56.32,0 78.04,33.62 78.04,82.83 v 426.49 c 0,48.05 -21.72,81.67 -78.04,81.67 h -57.77 v -590.99 z m 214.95,484.07 v -377.21 c 0,-124.88 -51.58,-218.57 -198.2,-218.57 h -211.42 v 814.42 h 211.42 c 146.62,0 198.2,-92.48 198.2,-218.64" /><path
         id="path40"
         style="fill:#ffffff;fill-opacity:1;fill-rule:nonzero;stroke:none"
         d="m 4141.06,3238.79 c 12.2,0 22.03,-9.91 22.03,-22.11 v -728.14 c 0,-12.38 -9.83,-22.14 -22.03,-22.14 h -294.69 c -12.26,0 -22.15,9.76 -22.15,22.14 v 728.14 c 0,12.2 9.89,22.11 22.15,22.11 h 294.69" /><path
         id="path42"
         style="fill:#ffffff;fill-opacity:1;fill-rule:nonzero;stroke:none"
         d="M 7377.11,2153.75 H 2521.06 c -12.14,0 -22.21,-10.43 -22.21,-22.81 v -296.8 c 0,-12.08 10.07,-21.85 22.21,-21.85 h 4856.05 c 11.95,0 22.27,9.77 22.27,21.85 v 296.8 c 0,12.38 -10.32,22.81 -22.27,22.81" /><path
         id="path44"
         style="fill:#ffffff;fill-opacity:1;fill-rule:nonzero;stroke:none"
         d="M 7377.11,1563.86 H 2521.06 c -12.14,0 -22.21,-9.77 -22.21,-21.85 V 1244.3 c 0,-11.89 10.07,-21.91 22.21,-21.91 h 4856.05 c 11.95,0 22.27,10.02 22.27,21.91 v 297.71 c 0,12.08 -10.32,21.85 -22.27,21.85" /><path
         id="path46"
         style="fill:#ffffff;fill-opacity:1;fill-rule:nonzero;stroke:none"
         d="m 6453.05,4044.82 c -60.68,47.45 -222.59,158.26 -420.06,158.26 -141.16,0 -272.48,-55.62 -389.97,-165.7 -8.31,-7.88 -12.98,-18.81 -12.98,-30.46 v -26.46 c 0,-13.01 4.3,-25.18 13.83,-33.19 10.56,-7.98 21.6,-10.98 34.23,-7.98 2.79,0.39 6.25,1.28 9.1,2.34 8.99,3.12 17.42,8.52 24.28,15.38 25.48,17.11 95.03,40.47 194.49,40.47 102.86,0 305.01,-27.54 500.36,-209.68 l 4.49,-4.01 c 10.98,-11.32 26.15,-17.57 42.23,-17.57 15.29,0 31.13,6.38 41.09,17.18 l 3.94,4.06 c 196.44,182.48 398.22,210.02 501.08,210.02 100.19,0 169.44,-23.36 194.98,-40.47 6.98,-6.86 15.54,-12.38 26.83,-16.44 4.31,-1.28 16.68,-3.8 28.46,-0.89 17.96,5.07 30.59,21.24 30.59,40.03 v 23.42 c 0,11.1 -4.8,22.3 -13.05,30.03 -118.58,113.03 -251.3,170.16 -394.7,170.16 -195.65,0 -356.83,-109.08 -419.22,-158.5" /><path
         id="path48"
         style="fill:#ffffff;fill-opacity:1;fill-rule:nonzero;stroke:none"
         d="m 6151.69,5980.15 c -10.32,-4.8 -17.78,-14.23 -21.18,-25.58 l -4.92,-16.2 c -3.64,-12.75 -1.33,-26.19 6.38,-36.47 7.52,-9.86 18.2,-15.81 30.04,-16.36 2.24,-0.27 4.42,-0.82 6.06,-0.27 8.44,0.27 16.02,2.09 23.49,6.01 4.31,0.88 13.29,3.27 29.43,3.27 21.73,0 217.5,-6.58 346.94,-226.59 l 1.64,-3.12 c 7.04,-12.74 18.02,-21.52 31.07,-24.88 3.76,-1.21 10.98,-2.4 15.48,-2.4 8.98,0 18.02,2.4 24.45,6.07 l 3.22,1.55 c 70.82,35.41 144.19,53.58 216.64,53.58 122.65,0 202.75,-50.03 221.45,-70.88 3.82,-7.07 9.65,-13.23 16.26,-18.11 4.13,-2.37 11.41,-6.04 15.78,-7.59 2.18,-0.54 4.73,-0.84 7.16,-1.03 1.33,-0.27 2.91,-0.27 4.37,-0.27 6.61,0 12.98,1.64 19.23,4.83 9.96,5 17.42,14.07 20.64,24.88 l 4.06,14.31 c 1.22,3.64 1.7,7.62 1.7,11.81 0,7.58 -1.94,14.93 -5.64,20.84 -94.31,163.76 -231.15,197.98 -329.4,197.98 -73.13,0 -137.09,-18.96 -174.78,-32.8 -44.48,59.83 -156.93,183.51 -327.52,183.51 -59.95,0 -121.06,-15.42 -182.05,-46.09" /><path
         id="path50"
         style="fill:#ffffff;fill-opacity:1;fill-rule:nonzero;stroke:none"
         d="m 5125.62,5233.08 1.39,-21.85 c 0.67,-13.65 7.83,-25.45 19.42,-32.7 9.59,-6.04 21.85,-8.13 32.65,-4.95 2.37,0.55 5.04,1.43 7.1,2.21 8.38,3.44 15.47,8.77 21,15.51 20.63,14.9 87.15,42.05 185.21,42.05 94.31,0 237.77,-25.18 383.96,-145.24 l 3.4,-3.49 c 10.44,-9.01 23.79,-14.11 37.44,-14.11 h 3.58 c 15.29,1.18 29.43,8.22 38.11,18.33 l 3.28,3.67 c 161.84,171.27 336.19,196.73 425.7,196.73 63.79,0 108.99,-13.16 126.6,-23.12 6.67,-5.76 14.93,-10.31 25.24,-13.1 2.92,-0.7 10.07,-1.97 17.78,-1.16 3.16,0.34 7.1,1.43 10.2,2.43 17.35,6.07 28.76,23 27.55,41.75 l -1.09,18.99 c -0.73,11.32 -6.01,21.48 -14.63,28.89 -96.61,81.25 -200.87,122.21 -310.59,122.21 -170.82,0 -307.06,-100.85 -363.5,-150.31 -51.65,35.17 -176.96,107.53 -324,107.53 -129.2,0 -245.05,-53.67 -344.51,-159.2 -7.83,-8.34 -11.78,-19.69 -11.29,-31.07" /><path
         id="path52"
         style="fill:#ffffff;fill-opacity:1;fill-rule:nonzero;stroke:none"
         d="m 2668.22,4843.26 c 0,290.78 235.76,526.42 526.45,526.42 11.41,0 22.51,-1 33.73,-1.64 27.74,367.98 334.38,658.2 709.54,658.2 393.43,0 712.39,-318.86 712.39,-712.27 0,-111.44 -26.4,-216.45 -72.03,-310.39 356.52,-78.98 623.35,-396.44 623.35,-776.56 0,-439.59 -356.4,-795.98 -796,-795.98 -32.11,0 -1062.3,6.19 -1062.3,6.19 v 0 c -311.38,0.06 -563.71,252.26 -563.71,563.59 0,149.56 58.62,284.97 153.65,385.89 -158.2,90.81 -265.07,260.99 -265.07,456.55" /></g></g></svg>