<?xml version="1.0" encoding="UTF-8" standalone="no"?>
<svg
   xmlns:dc="http://purl.org/dc/elements/1.1/"
   xmlns:cc="http://creativecommons.org/ns#"
   xmlns:rdf="http://www.w3.org/1999/02/22-rdf-syntax-ns#"
   xmlns:svg="http://www.w3.org/2000/svg"
   xmlns="http://www.w3.org/2000/svg"
   viewBox="0 0 1333.3333 1333.3333"
   height="1333.3333"
   width="1333.3333"
   xml:space="preserve"
   id="svg2"
   version="1.1"><metadata
     id="metadata8"><rdf:RDF><cc:Work
         rdf:about=""><dc:format>image/svg+xml</dc:format><dc:type
           rdf:resource="http://purl.org/dc/dcmitype/StillImage" /></cc:Work></rdf:RDF></metadata><defs
     id="defs6" /><g
     transform="matrix(1.3333333,0,0,-1.3333333,0,1333.3333)"
     id="g10"><g
       transform="scale(0.1)"
       id="g12"><path
         id="path14"
         style="fill:#f78e27;fill-opacity:1;fill-rule:nonzero;stroke:none"
         d="M 0,0 H 10000 V 10000 H 0 Z" /><path
         id="path16"
         style="fill:#ffffff;fill-opacity:1;fill-rule:nonzero;stroke:none"
         d="m 2925.51,8335.98 c 139.82,0 200.14,79.62 200.14,191.76 v 39.81 c 0,90.42 -36.29,136.3 -110.94,212.28 l -87.99,86.77 c -39.81,38.6 -65.06,65.06 -65.06,111.06 v 16.75 c 0,45.88 26.58,67.6 65.06,67.6 43.32,0 65.05,-22.94 65.05,-70.03 v -71.01 h 125.38 v 66.27 c 0,118.09 -54.14,185.7 -191.64,185.7 -133.88,0 -192.87,-78.4 -192.87,-179.63 v -27.91 c 0,-93.94 36.17,-141.03 114.45,-218.1 l 80.72,-80.95 c 42.23,-39.69 61.53,-68.7 61.53,-115.66 v -31.32 c 0,-43.45 -19.3,-72.33 -62.62,-72.33 -46.98,0 -67.49,26.46 -67.49,72.33 v 112.02 h -127.68 v -109.71 c 0,-107.29 54.13,-185.7 193.96,-185.7" /><path
         id="path18"
         style="fill:#ffffff;fill-opacity:1;fill-rule:nonzero;stroke:none"
         d="m 3584.68,8544.62 v 618.73 h -126.59 v -631.96 c 0,-48.31 -19.3,-80.71 -67.61,-80.71 -48.18,0 -67.36,32.4 -67.36,80.71 v 631.96 H 3185.6 v -618.73 c 0,-126.59 60.33,-208.64 204.88,-208.64 139.94,0 194.2,82.05 194.2,208.64" /><path
         id="path20"
         style="fill:#ffffff;fill-opacity:1;fill-rule:nonzero;stroke:none"
         d="m 4048.8,8527.74 v 39.81 c 0,90.42 -36.29,136.3 -110.81,212.28 l -88.11,86.9 c -39.82,38.47 -65.18,65.05 -65.18,110.81 v 16.87 c 0,45.88 26.7,67.6 65.18,67.6 43.45,0 65.05,-22.82 65.05,-70.03 v -71.01 h 125.38 v 66.27 c 0,118.22 -54.13,185.7 -191.65,185.7 -133.75,0 -192.86,-78.4 -192.86,-179.75 v -27.67 c 0,-94.06 36.29,-141.15 114.7,-218.34 l 80.59,-80.83 c 42.24,-39.69 61.42,-68.7 61.42,-115.66 v -31.44 c 0,-43.21 -19.18,-72.34 -62.63,-72.34 -46.98,0 -67.49,26.59 -67.49,72.34 v 112.26 h -127.68 v -109.96 c 0,-107.29 54.13,-185.57 193.95,-185.57 139.82,0 200.14,79.62 200.14,191.76" /><path
         id="path22"
         style="fill:#ffffff;fill-opacity:1;fill-rule:nonzero;stroke:none"
         d="m 4447.27,9163.35 h -365.21 v -112.26 h 113.24 v -705.52 h 138.73 v 705.52 h 113.24 v 112.26" /><path
         id="path24"
         style="fill:#ffffff;fill-opacity:1;fill-rule:nonzero;stroke:none"
         d="m 4593.77,8604.93 54.13,327.94 h 1.33 l 54.26,-327.94 z m 138.48,558.42 H 4575.56 L 4421.3,8345.69 h 130.23 l 24.03,149.41 h 145.89 l 25.36,-149.41 h 141.04 l -155.6,817.66" /><path
         id="path26"
         style="fill:#ffffff;fill-opacity:1;fill-rule:nonzero;stroke:none"
         d="m 4943.32,8345.57 h 137.391 v 817.66 H 4943.32 Z" /><path
         id="path28"
         style="fill:#ffffff;fill-opacity:1;fill-rule:nonzero;stroke:none"
         d="m 5556.98,8345.57 v 817.78 h -114.45 v -469.09 l -148.44,469.09 h -134.97 v -817.78 h 115.79 v 513.87 l 161.42,-513.87 h 120.65" /><path
         id="path30"
         style="fill:#ffffff;fill-opacity:1;fill-rule:nonzero;stroke:none"
         d="m 5827.88,8932.99 h 1.34 l 54.37,-328.06 h -109.84 z m -72.22,-437.77 h 145.9 l 25.24,-149.53 h 141.04 l -155.48,817.66 h -156.7 L 5601.4,8345.69 h 130.23 l 24.03,149.53" /><path
         id="path32"
         style="fill:#ffffff;fill-opacity:1;fill-rule:nonzero;stroke:none"
         d="m 6377.33,8524.1 c 0,-43.45 -21.6,-66.38 -67.48,-66.38 h -60.2 v 255.72 h 58.99 c 48.18,0 68.69,-22.94 68.69,-66.27 z m -127.68,526.99 h 47.1 c 45.63,0 66.27,-21.61 66.27,-66.27 v -100.13 c 0,-43.45 -20.64,-66.39 -65.18,-66.39 h -48.19 z m 244.69,-150.62 v 83.14 c 0,115.78 -45.76,179.74 -183.27,179.74 h -198.94 v -817.78 h 213.38 c 137.51,0 189.22,63.97 189.22,179.75 v 108.5 c 0,74.76 -33.62,120.64 -102.44,136.3 56.68,18.08 82.05,61.53 82.05,130.35" /><path
         id="path34"
         style="fill:#ffffff;fill-opacity:1;fill-rule:nonzero;stroke:none"
         d="m 6708.69,9163.35 h -137.4 v -817.78 h 301.25 v 112.27 h -163.85 v 705.51" /><path
         id="path36"
         style="fill:#ffffff;fill-opacity:1;fill-rule:nonzero;stroke:none"
         d="m 7250.86,9051.09 v 112.26 h -327.83 v -817.78 h 327.83 v 112.27 h -190.44 v 248.44 h 136.18 v 110.81 h -136.18 v 234 h 190.44" /><path
         id="path38"
         style="fill:#ffffff;fill-opacity:1;fill-rule:nonzero;stroke:none"
         d="m 7686.89,8335.98 c 145.88,0 194.19,86.78 194.19,203.78 v 141.15 h -125.5 v -150.86 c 0,-48.06 -16.87,-79.5 -66.27,-79.5 -49.4,0 -69.79,34.96 -69.79,84.48 v 438.86 c 0,49.52 20.39,84.48 69.79,84.48 49.4,0 66.27,-28.89 66.27,-79.62 v -107.41 h 125.5 v 96.48 c 0,120.65 -42.24,205.12 -194.19,205.12 -144.56,0 -204.88,-92.85 -204.88,-220.65 v -395.66 c 0,-126.58 60.32,-220.65 204.88,-220.65" /><path
         id="path40"
         style="fill:#ffffff;fill-opacity:1;fill-rule:nonzero;stroke:none"
         d="m 7945.65,8345.57 h 137.273 v 817.66 H 7945.65 Z" /><path
         id="path42"
         style="fill:#ffffff;fill-opacity:1;fill-rule:nonzero;stroke:none"
         d="m 8387.45,8345.57 v 705.52 h 113.11 v 112.26 h -365.08 v -112.26 h 113.24 v -705.52 h 138.73" /><path
         id="path44"
         style="fill:#ffffff;fill-opacity:1;fill-rule:nonzero;stroke:none"
         d="m 8554.34,8345.57 h 137.262 v 817.66 H 8554.34 Z" /><path
         id="path46"
         style="fill:#ffffff;fill-opacity:1;fill-rule:nonzero;stroke:none"
         d="m 8762.37,8345.57 h 327.82 v 112.27 h -190.43 v 248.44 h 136.06 v 110.81 h -136.06 v 234 h 190.43 v 112.26 h -327.82 v -817.78" /><path
         id="path48"
         style="fill:#ffffff;fill-opacity:1;fill-rule:nonzero;stroke:none"
         d="m 9323.1,8866.6 c -39.8,38.72 -64.93,65.06 -64.93,111.06 v 16.75 c 0,45.88 26.46,67.6 64.93,67.6 43.58,0 65.06,-22.94 65.06,-70.03 v -71.12 h 125.51 v 66.38 c 0,118.22 -54.26,185.7 -191.78,185.7 -133.75,0 -192.73,-78.4 -192.73,-179.63 v -27.91 c 0,-93.94 36.04,-141.03 114.45,-218.1 l 80.71,-80.95 c 42.36,-39.69 61.54,-68.7 61.54,-115.66 v -31.32 c 0,-43.45 -19.18,-72.33 -62.76,-72.33 -46.96,0 -67.48,26.46 -67.48,72.33 v 112.02 h -127.68 v -109.71 c 0,-107.29 54.13,-185.7 193.95,-185.7 139.82,0 200.27,79.62 200.27,191.76 v 39.81 c 0,90.42 -36.42,136.3 -110.94,212.28 l -88.12,86.77" /><path
         id="path50"
         style="fill:#ffffff;fill-opacity:1;fill-rule:nonzero;stroke:none"
         d="m 2906.02,7404.85 54.14,327.93 h 1.33 l 54.13,-327.93 z m -18.08,558.29 -154.39,-817.54 h 130.24 l 24.15,149.53 h 145.77 l 25.36,-149.53 h 141.04 l -155.48,817.54 h -156.69" /><path
         id="path52"
         style="fill:#ffffff;fill-opacity:1;fill-rule:nonzero;stroke:none"
         d="m 3552.21,7494.06 -148.32,469.08 h -134.97 v -817.65 h 115.79 v 513.87 l 161.43,-513.87 h 120.52 v 817.65 h -114.45 v -469.08" /><path
         id="path54"
         style="fill:#ffffff;fill-opacity:1;fill-rule:nonzero;stroke:none"
         d="m 4030.78,7340.89 c 0,-49.4 -21.72,-83.14 -78.29,-83.14 h -58.01 V 7851 h 58.01 c 56.57,0 78.29,-33.75 78.29,-81.93 z m -61.41,622.37 H 3757.2 v -817.77 h 212.17 c 147.1,0 198.8,94.05 198.8,219.55 v 378.67 c 0,126.58 -51.7,219.55 -198.8,219.55" /><path
         id="path56"
         style="fill:#ffffff;fill-opacity:1;fill-rule:nonzero;stroke:none"
         d="m 4602.32,7972.85 c -144.67,0 -205,-92.85 -205,-220.77 v -395.53 c 0,-126.59 60.33,-220.65 205,-220.65 145.89,0 193.95,86.89 193.95,203.89 v 141.04 H 4670.9 v -150.74 c 0,-48.31 -16.75,-79.62 -66.15,-79.62 -49.4,0 -69.91,34.95 -69.91,84.47 v 438.99 c 0,49.4 20.51,84.35 69.91,84.35 49.4,0 66.15,-28.89 66.15,-79.62 v -107.29 h 125.37 v 96.49 c 0,120.64 -42.11,204.99 -193.95,204.99" /><path
         id="path58"
         style="fill:#ffffff;fill-opacity:1;fill-rule:nonzero;stroke:none"
         d="m 5161.73,7334.94 c 0,-49.52 -21.73,-84.47 -71,-84.47 -48.43,0 -69.92,34.95 -69.92,84.47 v 438.99 c 0,49.4 21.49,84.35 69.92,84.35 49.27,0 71,-34.95 71,-84.35 z m -71,637.91 c -144.8,0 -207.43,-92.85 -207.43,-220.77 v -395.53 c 0,-126.59 62.63,-220.65 207.43,-220.65 145.76,0 208.39,94.06 208.39,220.65 v 395.53 c 0,127.92 -62.63,220.77 -208.39,220.77" /><path
         id="path60"
         style="fill:#ffffff;fill-opacity:1;fill-rule:nonzero;stroke:none"
         d="m 5640.3,7502.55 h -1.21 L 5550,7963.26 H 5389.67 V 7145.6 h 113.24 v 530.63 h 2.43 l 102.43,-530.63 h 63.85 l 92.84,530.63 h 3.65 V 7145.6 h 125.38 v 817.66 h -173.57 l -79.62,-460.71" /><path
         id="path62"
         style="fill:#ffffff;fill-opacity:1;fill-rule:nonzero;stroke:none"
         d="m 6234.79,7502.55 h -1.22 l -89.21,460.71 H 5984.03 V 7145.6 h 113.36 v 530.63 h 2.31 l 102.44,-530.63 h 63.96 l 92.73,530.63 h 3.64 V 7145.6 h 125.37 v 817.66 h -173.56 l -79.49,-460.71" /><path
         id="path64"
         style="fill:#ffffff;fill-opacity:1;fill-rule:nonzero;stroke:none"
         d="m 6850.75,7331.3 c 0,-48.3 -19.18,-80.95 -67.48,-80.95 -48.19,0 -67.49,32.65 -67.49,80.95 v 631.84 h -137.51 v -618.49 c 0,-126.71 60.32,-208.75 205,-208.75 139.82,0 194.07,82.04 194.07,208.75 v 618.49 H 6850.75 V 7331.3" /><path
         id="path66"
         style="fill:#ffffff;fill-opacity:1;fill-rule:nonzero;stroke:none"
         d="m 7351.29,7494.06 -148.44,469.08 h -134.97 v -817.65 h 115.79 v 513.87 l 161.43,-513.87 h 120.52 v 817.65 h -114.33 v -469.08" /><path
         id="path68"
         style="fill:#ffffff;fill-opacity:1;fill-rule:nonzero;stroke:none"
         d="m 716.523,8796.06 v -353.79 h 2.915 l 237.89,246.86 h 3.031 V 7145.7 H 1299.35 V 9161.99 H 1028.69 L 716.523,8796.06" /><path
         id="path70"
         style="fill:#ffffff;fill-opacity:1;fill-rule:nonzero;stroke:none"
         d="m 1489.67,8796.06 v -353.79 h 3.03 l 237.89,246.86 h 2.91 V 7145.7 h 339.12 v 2016.29 h -270.54 l -312.41,-365.93" /><path
         id="path72"
         style="fill:#ffffff;fill-opacity:1;fill-rule:nonzero;stroke:none"
         d="m 7556.41,7145.6 h 137.391 v 817.66 H 7556.41 Z" /><path
         id="path74"
         style="fill:#ffffff;fill-opacity:1;fill-rule:nonzero;stroke:none"
         d="m 7768.57,7851.12 h 113.36 V 7145.6 h 138.61 v 705.52 h 113.24 v 112.14 h -365.21 v -112.14" /><path
         id="path76"
         style="fill:#ffffff;fill-opacity:1;fill-rule:nonzero;stroke:none"
         d="m 8209.76,7145.6 h 137.508 v 817.66 H 8209.76 Z" /><path
         id="path78"
         style="fill:#ffffff;fill-opacity:1;fill-rule:nonzero;stroke:none"
         d="m 8439.03,7145.6 h 327.83 v 112.15 H 8576.3 v 248.32 h 136.3 v 111.05 h -136.3 v 234 h 190.56 v 112.14 H 8439.03 V 7145.6" /><path
         id="path80"
         style="fill:#ffffff;fill-opacity:1;fill-rule:nonzero;stroke:none"
         d="m 9033.27,7666.51 c -39.69,38.73 -65.06,65.18 -65.06,110.94 v 16.99 c 0,45.88 26.46,67.48 65.06,67.48 43.45,0 65.06,-22.94 65.06,-69.91 v -71.24 h 125.5 v 66.38 c 0,118.22 -54.38,185.7 -191.77,185.7 -133.88,0 -192.87,-78.4 -192.87,-179.74 v -27.68 c 0,-94.06 36.18,-141.15 114.58,-218.22 l 80.84,-80.95 c 42.11,-39.69 61.41,-68.7 61.41,-115.66 v -31.44 c 0,-43.33 -19.3,-72.33 -62.75,-72.33 -46.97,0 -67.49,26.45 -67.49,72.33 v 112.15 h -127.8 v -109.72 c 0,-107.29 54.26,-185.69 194.08,-185.69 139.82,0 200.14,79.49 200.14,191.64 v 39.92 c 0,90.42 -36.17,136.18 -110.94,212.28 l -87.99,86.77" /><path
         id="path82"
         style="fill:#ffffff;fill-opacity:1;fill-rule:nonzero;stroke:none"
         d="m 1720.33,2386.95 h 1504.24 c 20.32,0 36.89,16.62 36.89,37.01 0,9.47 -3.82,17.97 -9.71,24.52 l -2.06,2.18 -748.38,968.28 -7.29,8.01 c -6.79,7.4 -16.45,12.01 -27.25,12.01 -9.28,0 -17.6,-3.88 -24.21,-9.46 l -4.49,-5.22 -7.04,-7.89 -730.12,-958.08 -11.22,-13.71 c -4.01,-5.83 -6.31,-12.99 -6.31,-20.64 0,-20.39 16.57,-37.01 36.95,-37.01" /><path
         id="path84"
         style="fill:#ffffff;fill-opacity:1;fill-rule:nonzero;stroke:none"
         d="m 3220.01,2250.41 h -1507.2 c -20.39,0 -36.9,-16.51 -36.9,-36.9 V 1034.05 c 0,-20.38 16.51,-37.011 36.9,-37.011 h 485.12 v 742.041 c 0,20.51 16.45,36.9 36.9,36.9 h 450.29 c 20.39,0 36.9,-16.39 36.9,-36.9 V 997.039 h 497.99 c 20.34,0 36.9,16.631 36.9,37.011 v 1179.46 c 0,20.39 -16.56,36.9 -36.9,36.9" /><path
         id="path86"
         style="fill:#ffffff;fill-opacity:1;fill-rule:nonzero;stroke:none"
         d="m 8294.05,2076.37 c 0,-19.66 -16.26,-35.57 -36.53,-35.57 h -445.56 c -20.27,0 -36.53,15.91 -36.53,35.57 v 271.01 c 0,19.54 16.26,35.44 36.53,35.44 h 445.56 c 20.27,0 36.53,-15.9 36.53,-35.44 z m 0,-500.53 c 0,-19.78 -16.26,-35.68 -36.53,-35.68 h -445.56 c -20.27,0 -36.53,15.9 -36.53,35.68 v 270.77 c 0,19.79 16.26,35.57 36.53,35.57 h 445.56 c 20.27,0 36.53,-15.78 36.53,-35.57 z m -681.14,500.53 c 0,-19.66 -16.27,-35.57 -36.41,-35.57 h -445.69 c -20.26,0 -36.65,15.91 -36.65,35.57 v 271.01 c 0,19.54 16.39,35.44 36.65,35.44 h 445.69 c 20.14,0 36.41,-15.9 36.41,-35.44 z m 0,-500.53 c 0,-19.78 -16.27,-35.68 -36.41,-35.68 h -445.69 c -20.26,0 -36.65,15.9 -36.65,35.68 v 270.77 c 0,19.79 16.39,35.57 36.65,35.57 h 445.69 c 20.14,0 36.41,-15.78 36.41,-35.57 z m 816.23,983.33 H 6937.35 c -20.15,0 -36.41,-15.66 -36.41,-35.44 v -1506.3 c 0,-19.539 16.26,-35.438 36.41,-35.438 h 1491.79 c 20.27,0 36.53,15.899 36.53,35.438 v 1506.3 c 0,19.78 -16.26,35.44 -36.53,35.44" /><path
         id="path88"
         style="fill:#ffffff;fill-opacity:1;fill-rule:nonzero;stroke:none"
         d="m 4748.52,4985.07 c 0,-10.44 -8.62,-19.05 -19.3,-19.05 h -334.14 c -10.68,0 -19.18,8.61 -19.18,19.05 v 372.6 c 0,10.68 8.5,19.18 19.18,19.18 h 334.14 c 10.68,0 19.3,-8.5 19.3,-19.18 z m 0,-855.28 c 0,-10.56 -8.62,-19.17 -19.3,-19.17 h -334.14 c -10.68,0 -19.18,8.61 -19.18,19.17 v 372.6 c 0,10.56 8.5,18.94 19.18,18.94 h 334.14 c 10.68,0 19.3,-8.38 19.3,-18.94 z m 0,-855.52 c 0,-10.56 -8.62,-19.18 -19.3,-19.18 h -334.14 c -10.68,0 -19.18,8.62 -19.18,19.18 v 372.6 c 0,10.55 8.5,19.17 19.18,19.17 h 334.14 c 10.68,0 19.3,-8.62 19.3,-19.17 z m 0,-855.28 c 0,-10.81 -8.62,-19.18 -19.3,-19.18 h -334.14 c -10.68,0 -19.18,8.37 -19.18,19.18 v 372.35 c 0,10.81 8.5,19.18 19.18,19.18 h 334.14 c 10.68,0 19.3,-8.37 19.3,-19.18 z m 0,-855.52 c 0,-10.56 -8.62,-19.18 -19.3,-19.18 h -334.14 c -10.68,0 -19.18,8.62 -19.18,19.18 v 372.47 c 0,10.56 8.5,19.06 19.18,19.06 h 334.14 c 10.68,0 19.3,-8.5 19.3,-19.06 z m -655.53,3421.6 c 0,-10.44 -8.62,-19.05 -19.18,-19.05 h -334.26 c -10.56,0 -19.18,8.61 -19.18,19.05 v 372.6 c 0,10.68 8.62,19.18 19.18,19.18 h 334.26 c 10.56,0 19.18,-8.5 19.18,-19.18 z m 0,-855.28 c 0,-10.56 -8.62,-19.17 -19.18,-19.17 h -334.26 c -10.56,0 -19.18,8.61 -19.18,19.17 v 372.6 c 0,10.56 8.62,18.94 19.18,18.94 h 334.26 c 10.56,0 19.18,-8.38 19.18,-18.94 z m 0,-855.52 c 0,-10.56 -8.62,-19.18 -19.18,-19.18 h -334.26 c -10.56,0 -19.18,8.62 -19.18,19.18 v 372.6 c 0,10.55 8.62,19.17 19.18,19.17 h 334.26 c 10.56,0 19.18,-8.62 19.18,-19.17 z m 0,-855.28 c 0,-10.81 -8.62,-19.18 -19.18,-19.18 h -334.26 c -10.56,0 -19.18,8.37 -19.18,19.18 v 372.35 c 0,10.81 8.62,19.18 19.18,19.18 h 334.26 c 10.56,0 19.18,-8.37 19.18,-19.18 z m 0,-855.52 c 0,-10.56 -8.62,-19.18 -19.18,-19.18 h -334.26 c -10.56,0 -19.18,8.62 -19.18,19.18 v 372.47 c 0,10.56 8.62,19.06 19.18,19.06 h 334.26 c 10.56,0 19.18,-8.5 19.18,-19.06 z M 4961.41,6055.6 H 3501.54 c -19.55,0 -35.69,-15.9 -35.69,-35.81 V 1030.78 c 0,-19.66 16.14,-35.678 35.69,-35.678 h 1459.87 c 19.53,0 35.92,16.018 35.92,35.678 v 4989.01 c 0,19.91 -16.39,35.81 -35.92,35.81" /><path
         id="path90"
         style="fill:#ffffff;fill-opacity:1;fill-rule:nonzero;stroke:none"
         d="m 8463.98,2710.76 c 0,-16.75 -13.36,-30.1 -29.99,-30.1 h -1501.5 c -16.5,0 -29.98,13.35 -29.98,30.1 v 300.26 c 0,16.51 13.48,29.98 29.98,29.98 h 1501.5 c 16.63,0 29.99,-13.47 29.99,-29.98 v -300.26" /><path
         id="path92"
         style="fill:#ffffff;fill-opacity:1;fill-rule:nonzero;stroke:none"
         d="m 6558.78,3589.09 c 0,-19.77 -16.13,-35.68 -35.68,-35.68 h -435 c -19.9,0 -35.92,15.91 -35.92,35.68 v 272.35 c 0,19.91 16.02,35.81 35.92,35.81 h 435 c 19.55,0 35.68,-15.9 35.68,-35.81 z m 0,-503.31 c 0,-19.66 -16.13,-35.55 -35.68,-35.55 h -435 c -19.9,0 -35.92,15.89 -35.92,35.55 v 272.35 c 0,19.79 16.02,35.69 35.92,35.69 h 435 c 19.55,0 35.68,-15.9 35.68,-35.69 z m 0,-503.31 c 0,-19.54 -16.13,-35.56 -35.68,-35.56 h -435 c -19.9,0 -35.92,16.02 -35.92,35.56 v 272.47 c 0,19.78 16.02,35.68 35.92,35.68 h 435 c 19.55,0 35.68,-15.9 35.68,-35.68 z m 0,-503.19 c 0,-19.78 -16.13,-35.69 -35.68,-35.69 h -435 c -19.9,0 -35.92,15.91 -35.92,35.69 v 272.35 c 0,19.91 16.02,35.68 35.92,35.68 h 435 c 19.55,0 35.68,-15.77 35.68,-35.68 z m 0,-503.19 c 0,-19.79 -16.13,-35.68 -35.68,-35.68 h -435 c -19.9,0 -35.92,15.89 -35.92,35.68 v 272.35 c 0,19.66 16.02,35.56 35.92,35.56 h 435 c 19.55,0 35.68,-15.9 35.68,-35.56 z m -663.9,2109.13 V 3085.3 c 0,-19.79 -16.14,-35.68 -35.69,-35.68 H 5424.2 c -19.91,0 -35.93,15.89 -35.93,35.68 v 75.49 c 0.18,4.73 1.09,9.22 2.74,13.35 0.72,1.45 0.84,2.06 2.18,4.13 0.85,1.69 2.06,3.27 3.15,4.73 1.1,1.7 2.73,3.88 4.07,5.82 55.59,79.62 306.58,388.75 412,518.01 l 10.56,12.74 c 7.65,9.22 19.17,15.17 32.1,15.17 19.96,0 35.93,-14.57 39.81,-33.38 z m -1.21,-1102.75 c 0,-19.54 -15.9,-35.56 -35.69,-35.56 h -435.11 c -19.79,0 -35.69,16.02 -35.69,35.56 v 272.47 c 0,19.78 15.9,35.68 35.69,35.68 h 435.11 c 19.79,0 35.69,-15.9 35.69,-35.68 z m 0,-503.19 c 0,-19.78 -15.9,-35.69 -35.69,-35.69 h -435.11 c -19.79,0 -35.69,15.91 -35.69,35.69 v 272.35 c 0,19.91 15.9,35.68 35.69,35.68 h 435.11 c 19.79,0 35.69,-15.77 35.69,-35.68 z m 0,-503.19 c 0,-19.79 -15.9,-35.68 -35.69,-35.68 h -435.11 c -19.79,0 -35.69,15.89 -35.69,35.68 v 272.35 c 0,19.66 15.9,35.56 35.69,35.56 h 435.11 c 19.79,0 35.69,-15.9 35.69,-35.56 z m 227.02,2548.97 10.26,12.87 c 98.19,125.97 263.62,329.63 344.27,428.54 l 10.56,12.63 c 7.65,9.22 19.18,15.17 32.1,15.17 19.97,0 35.93,-14.45 39.82,-33.38 v -460.47 c 0,-22.21 -17.66,-40.05 -39.63,-41.02 -0.67,0 -1.22,-0.37 -1.82,-0.37 -0.61,0 -1.16,0.37 -1.82,0.37 h -358.54 c -0.67,0 -1.21,-0.37 -1.82,-0.37 -0.61,0 -1.15,0.37 -1.82,0.37 -21.97,0.97 -39.62,18.81 -39.62,41.02 0,9.23 2.97,17.72 8.06,24.64 z m 604.07,988.42 c -4.85,16.02 -19.05,27.91 -36.65,27.91 -7.89,0 -14.75,-2.91 -20.87,-6.91 -0.92,-0.61 -1.82,-1.1 -2.74,-1.82 l -12.31,-15.54 -1434.81,-1820.04 -6.61,-8.86 c -7.41,-7.28 -12.14,-17.23 -12.44,-28.39 V 1023.25 c 0,-19.66 16.02,-35.559 35.8,-35.559 h 1458.41 c 19.79,0 35.68,15.899 35.68,35.559 v 4075.3 c 0,5.34 -1.4,10.44 -3.46,14.93" /></g></g></svg>