<?xml version="1.0" encoding="UTF-8" standalone="no"?>
<svg
   xmlns:dc="http://purl.org/dc/elements/1.1/"
   xmlns:cc="http://creativecommons.org/ns#"
   xmlns:rdf="http://www.w3.org/1999/02/22-rdf-syntax-ns#"
   xmlns:svg="http://www.w3.org/2000/svg"
   xmlns="http://www.w3.org/2000/svg"
   viewBox="0 0 1333.28 1333.3333"
   height="1333.3333"
   width="1333.28"
   xml:space="preserve"
   id="svg2"
   version="1.1"><metadata
     id="metadata8"><rdf:RDF><cc:Work
         rdf:about=""><dc:format>image/svg+xml</dc:format><dc:type
           rdf:resource="http://purl.org/dc/dcmitype/StillImage" /></cc:Work></rdf:RDF></metadata><defs
     id="defs6"><clipPath
       id="clipPath20"
       clipPathUnits="userSpaceOnUse"><path
         id="path18"
         d="M 0,10000 V 0 h 9999.64 v 10000 z" /></clipPath></defs><g
     transform="matrix(1.3333333,0,0,-1.3333333,0,1333.3333)"
     id="g10"><g
       transform="scale(0.1)"
       id="g12"><g
         id="g14"><g
           clip-path="url(#clipPath20)"
           id="g16"><path
             id="path22"
             style="fill:#c71c37;fill-opacity:1;fill-rule:nonzero;stroke:none"
             d="M 0,0 H 9999.64 V 10000 H 0 Z" /><path
             id="path24"
             style="fill:#ffffff;fill-opacity:1;fill-rule:nonzero;stroke:none"
             d="m 2992.96,8973.84 c 0,49.4 21.61,84.3 69.91,84.3 49.4,0 71,-34.9 71,-84.3 v -446.26 c 0,-48.18 -21.6,-84.47 -71,-84.47 -48.3,0 -69.91,36.29 -69.91,84.47 z m 19.18,-628.31 v -55.46 l 259.12,-48.25 v 102.5 l -101.23,19.36 c 70.03,33.74 101.23,103.64 101.23,192.91 v 395.59 c 0,127.75 -62.63,220.59 -208.39,220.59 -144.79,0 -207.42,-92.84 -207.42,-220.59 v -395.59 c 0,-110.93 47.1,-191.82 156.69,-211.06" /><path
             id="path26"
             style="fill:#ffffff;fill-opacity:1;fill-rule:nonzero;stroke:none"
             d="m 3566.78,8335.82 c 139.82,0 194.19,82.05 194.19,208.63 v 618.73 h -126.7 v -631.96 c 0,-48.24 -19.3,-80.83 -67.49,-80.83 -48.18,0 -67.48,32.59 -67.48,80.83 v 631.96 h -137.5 v -618.73 c 0,-126.58 60.43,-208.63 204.98,-208.63" /><path
             id="path28"
             style="fill:#ffffff;fill-opacity:1;fill-rule:nonzero;stroke:none"
             d="m 4036.84,8932.83 h 1.33 l 54.25,-328.06 h -109.84 z m -72.21,-437.72 h 145.76 l 25.36,-149.58 h 141.15 l -155.6,817.65 h -156.67 l -154.38,-817.65 h 130.22 l 24.16,149.58" /><path
             id="path30"
             style="fill:#ffffff;fill-opacity:1;fill-rule:nonzero;stroke:none"
             d="M 4646.94,8457.67 H 4483.1 v 705.51 h -137.51 v -817.65 h 301.35 v 112.14" /><path
             id="path32"
             style="fill:#ffffff;fill-opacity:1;fill-rule:nonzero;stroke:none"
             d="m 4710.66,8345.53 h 137.391 v 817.645 H 4710.66 Z" /><path
             id="path34"
             style="fill:#ffffff;fill-opacity:1;fill-rule:nonzero;stroke:none"
             d="m 5026.1,8345.53 h 138.47 v 705.51 h 113.48 v 112.14 h -365.19 v -112.14 h 113.24 v -705.51" /><path
             id="path36"
             style="fill:#ffffff;fill-opacity:1;fill-rule:nonzero;stroke:none"
             d="m 5473.09,8345.53 h 137.5 v 311.18 l 151.84,506.53 h -131.44 l -83.14,-310.03 h -1.22 l -83.13,310.03 h -143.45 l 153.04,-506.53 v -311.18" /><path
             id="path38"
             style="fill:#ffffff;fill-opacity:1;fill-rule:nonzero;stroke:none"
             d="m 3183.08,7258.75 h -190.42 v 248.56 h 136.17 v 110.81 h -136.17 v 234 h 190.42 v 112.2 h -327.81 v -817.65 h 327.81 v 112.08" /><path
             id="path40"
             style="fill:#ffffff;fill-opacity:1;fill-rule:nonzero;stroke:none"
             d="m 3404.94,7258.75 v 593.48 h 57.89 c 56.56,0 78.16,-33.86 78.16,-82.04 v -428.18 c 0,-49.39 -21.6,-83.26 -78.16,-83.26 z m 273.56,107.42 v 378.59 c 0,126.65 -51.7,219.5 -198.8,219.5 h -212.27 v -817.65 h 212.27 c 147.1,0 198.8,94.06 198.8,219.56" /><path
             id="path42"
             style="fill:#ffffff;fill-opacity:1;fill-rule:nonzero;stroke:none"
             d="m 3769.04,7964.32 v -618.73 c 0,-126.65 60.2,-208.57 204.87,-208.57 139.93,0 194.06,81.92 194.06,208.57 v 618.73 h -126.46 v -631.9 c 0,-48.3 -19.42,-80.83 -67.6,-80.83 -48.31,0 -67.48,32.53 -67.48,80.83 v 631.9 h -137.39" /><path
             id="path44"
             style="fill:#ffffff;fill-opacity:1;fill-rule:nonzero;stroke:none"
             d="m 4258.39,7357.73 c 0,-126.65 60.32,-220.77 204.99,-220.77 145.88,0 194.07,86.84 194.07,203.96 v 140.97 h -125.38 v -150.68 c 0,-48.3 -16.87,-79.62 -66.26,-79.62 -49.52,0 -69.91,34.96 -69.91,84.47 v 438.87 c 0,49.45 20.39,84.47 69.91,84.47 49.39,0 66.26,-28.89 66.26,-79.62 v -107.29 h 125.38 v 96.49 c 0,120.51 -42.24,205.05 -194.07,205.05 -144.67,0 -204.99,-92.97 -204.99,-220.77 v -395.53" /><path
             id="path46"
             style="fill:#ffffff;fill-opacity:1;fill-rule:nonzero;stroke:none"
             d="m 4926.03,7733.96 h 1.21 l 54.25,-327.99 h -109.71 z m -72.22,-437.7 h 145.76 l 25.37,-149.59 h 141.03 l -155.47,817.65 h -156.69 l -154.37,-817.65 h 130.23 l 24.14,149.59" /><path
             id="path48"
             style="fill:#ffffff;fill-opacity:1;fill-rule:nonzero;stroke:none"
             d="m 5148.86,7852.12 h 113.23 v -705.45 h 138.73 v 705.45 h 113.23 v 112.2 h -365.19 v -112.2" /><path
             id="path50"
             style="fill:#ffffff;fill-opacity:1;fill-rule:nonzero;stroke:none"
             d="m 5590.03,7146.61 h 137.5 v 817.652 h -137.5 z" /><path
             id="path52"
             style="fill:#ffffff;fill-opacity:1;fill-rule:nonzero;stroke:none"
             d="m 5956.55,7774.99 c 0,49.39 21.73,84.28 69.91,84.28 49.39,0 71.12,-34.89 71.12,-84.28 v -438.93 c 0,-49.51 -21.73,-84.47 -71.12,-84.47 -48.18,0 -69.91,34.96 -69.91,84.47 z m 69.91,-637.97 c 145.76,0 208.38,94 208.38,220.77 v 395.53 c 0,127.8 -62.62,220.58 -208.38,220.58 -144.67,0 -207.29,-92.78 -207.29,-220.58 v -395.53 c 0,-126.77 62.62,-220.77 207.29,-220.77" /><path
             id="path54"
             style="fill:#ffffff;fill-opacity:1;fill-rule:nonzero;stroke:none"
             d="m 6441.17,7660.48 161.66,-513.93 h 120.52 v 817.83 h -114.57 v -469.21 l -148.31,469.21 h -134.84 v -817.83 h 115.54 v 513.93" /><path
             id="path56"
             style="fill:#ffffff;fill-opacity:1;fill-rule:nonzero;stroke:none"
             d="m 1266.1,7737.4 303.29,829.71 h 3.04 V 7737.4 Z m 300.38,-591.67 h 321.14 v 327.09 h 136.9 v 264.58 h -136.9 V 9162 H 1554.46 L 968.746,7680.96 v -208.14 h 597.734 v -327.09" /><path
             id="path58"
             style="fill:#ffffff;fill-opacity:1;fill-rule:nonzero;stroke:none"
             d="M 4434.13,4638.15 2640.7,5673.7 V 2323.68 l 1793.43,-541.11 v 2855.58" /><path
             id="path60"
             style="fill:#ffffff;fill-opacity:1;fill-rule:nonzero;stroke:none"
             d="M 4631.35,4631.28 V 1781.41 l 1805.09,542.7 V 5673.59 L 4631.35,4631.28" /><path
             id="path62"
             style="fill:#ffffff;fill-opacity:1;fill-rule:nonzero;stroke:none"
             d="m 7844.29,5758.48 c 0,117.3 -95.03,212.27 -212.03,212.27 -117.36,0 -212.27,-94.97 -212.27,-212.27 v -228.72 h 424.3 v 228.72" /><path
             id="path64"
             style="fill:#ffffff;fill-opacity:1;fill-rule:nonzero;stroke:none"
             d="m 7472.67,2383.09 h -52.68 l 212.27,-741.61 211.91,741.61 h -52.68 52.68 v 2980.52 h -424.3 V 2383.09 h 52.8" /><path
             id="path66"
             style="fill:#ffffff;fill-opacity:1;fill-rule:nonzero;stroke:none"
             d="m 6821.65,5529.82 -192.24,151.89 V 2232.84 L 4636.69,1588.93 H 4434.13 L 2450.27,2143.15 V 5681.71 L 2257.9,5529.82 V 2008.25 l 2167.12,-599.92 h 220.65 l 1999.39,634.81 176.59,51.95 v 3434.73" /></g></g></g></g></svg>