<?xml version="1.0" encoding="UTF-8" standalone="no"?>
<svg
   xmlns:dc="http://purl.org/dc/elements/1.1/"
   xmlns:cc="http://creativecommons.org/ns#"
   xmlns:rdf="http://www.w3.org/1999/02/22-rdf-syntax-ns#"
   xmlns:svg="http://www.w3.org/2000/svg"
   xmlns="http://www.w3.org/2000/svg"
   viewBox="0 0 1333.3333 1333.3333"
   height="1333.3333"
   width="1333.3333"
   xml:space="preserve"
   id="svg2"
   version="1.1"><metadata
     id="metadata8"><rdf:RDF><cc:Work
         rdf:about=""><dc:format>image/svg+xml</dc:format><dc:type
           rdf:resource="http://purl.org/dc/dcmitype/StillImage" /></cc:Work></rdf:RDF></metadata><defs
     id="defs6" /><g
     transform="matrix(1.3333333,0,0,-1.3333333,0,1333.3333)"
     id="g10"><g
       transform="scale(0.1)"
       id="g12"><path
         id="path14"
         style="fill:#2e6ba5;fill-opacity:1;fill-rule:nonzero;stroke:none"
         d="M 0,0 H 10000 V 10000 H 0 Z" /><path
         id="path16"
         style="fill:#ffffff;fill-opacity:1;fill-rule:nonzero;stroke:none"
         d="m 3447.06,8796.66 c 0,-44.66 -20.39,-67.54 -67.48,-67.54 h -50.62 v 322.04 h 50.62 c 47.09,0 67.48,-21.84 67.48,-66.38 z m 137.39,183.32 c 0,114.57 -50.74,183.21 -189.22,183.21 h -203.66 v -817.64 h 137.39 v 277.38 h 66.27 c 138.48,0 189.22,69.9 189.22,184.54 v 172.51" /><path
         id="path18"
         style="fill:#ffffff;fill-opacity:1;fill-rule:nonzero;stroke:none"
         d="m 3973.32,9051.16 v 112.14 h -327.94 v -817.75 h 327.94 v 112.14 h -190.55 v 248.56 h 136.18 v 110.92 h -136.18 v 233.99 h 190.55" /><path
         id="path20"
         style="fill:#ffffff;fill-opacity:1;fill-rule:nonzero;stroke:none"
         d="m 4197.25,8604.91 54.25,328.05 h 1.22 l 54.25,-328.05 z m 138.49,558.39 H 4179.17 L 4024.9,8345.55 h 130.12 l 24.15,149.58 h 145.77 l 25.36,-149.58 h 140.91 l -155.47,817.75" /><path
         id="path22"
         style="fill:#ffffff;fill-opacity:1;fill-rule:nonzero;stroke:none"
         d="m 4936.89,8871.36 v 96.55 c 0,120.57 -42.24,204.98 -194.2,204.98 -144.55,0 -204.87,-92.9 -204.87,-220.7 v -395.53 c 0,-126.64 60.32,-220.7 204.87,-220.7 146.01,0 194.2,86.78 194.2,203.83 v 141.09 h -125.38 v -150.8 c 0,-48.24 -16.99,-79.55 -66.39,-79.55 -49.39,0 -69.79,34.95 -69.79,84.35 v 439.1 c 0,49.4 20.4,84.35 69.79,84.35 49.4,0 66.39,-29.01 66.39,-79.62 v -107.35 h 125.38" /><path
         id="path24"
         style="fill:#ffffff;fill-opacity:1;fill-rule:nonzero;stroke:none"
         d="m 5340.45,8457.81 h -190.56 v 248.44 h 136.18 v 110.92 h -136.18 v 233.99 h 190.56 v 112.14 h -327.83 v -817.75 h 327.83 v 112.26" /><path
         id="path26"
         style="fill:#ffffff;fill-opacity:1;fill-rule:nonzero;stroke:none"
         d="m 5782.36,8604.91 54.25,328.05 h 1.22 l 54.25,-328.05 z m 138.61,558.39 h -156.7 l -154.26,-817.75 h 130.11 l 24.15,149.58 h 145.89 l 25.25,-149.58 h 141.03 l -155.47,817.75" /><path
         id="path28"
         style="fill:#ffffff;fill-opacity:1;fill-rule:nonzero;stroke:none"
         d="m 6122.93,8345.55 h 115.78 v 513.86 l 161.43,-513.86 h 120.51 V 9163.3 H 6406.2 v -469.13 l -148.19,469.13 h -135.08 v -817.75" /><path
         id="path30"
         style="fill:#ffffff;fill-opacity:1;fill-rule:nonzero;stroke:none"
         d="m 6748.71,9051.16 h 57.78 c 56.68,0 78.4,-33.79 78.4,-82.09 v -428.12 c 0,-49.46 -21.72,-83.26 -78.4,-83.26 h -57.78 z M 6611.2,8345.55 h 212.28 c 146.86,0 198.8,94.12 198.8,219.61 v 378.6 c 0,126.64 -51.94,219.54 -198.8,219.54 H 6611.2 v -817.75" /><path
         id="path32"
         style="fill:#ffffff;fill-opacity:1;fill-rule:nonzero;stroke:none"
         d="m 3371.87,7136.81 c 137.39,0 189.09,77.19 189.09,195.28 v 631.95 h -137.27 v -646.39 c 0,-42.17 -14.44,-66.39 -51.82,-66.39 -36.29,0 -50.74,24.22 -50.74,65.11 v 165.24 H 3190.9 v -162.75 c 0,-103.7 38.6,-182.05 180.97,-182.05" /><path
         id="path34"
         style="fill:#ffffff;fill-opacity:1;fill-rule:nonzero;stroke:none"
         d="m 3853.96,7136.81 c 139.93,0 194.19,81.99 194.19,208.57 v 618.66 h -126.6 v -631.95 c 0,-48.18 -19.29,-80.83 -67.59,-80.83 -48.07,0 -67.37,32.65 -67.37,80.83 v 631.95 h -137.51 v -618.66 c 0,-126.58 60.32,-208.57 204.88,-208.57" /><path
         id="path36"
         style="fill:#ffffff;fill-opacity:1;fill-rule:nonzero;stroke:none"
         d="M 4119.03,7432.28 V 7322.5 c 0,-107.34 54.25,-185.69 194.19,-185.69 139.58,0 199.9,79.56 199.9,191.64 v 39.87 c 0,90.48 -36.05,136.17 -110.81,212.2 l -87.99,86.78 c -39.82,38.72 -65.06,65.23 -65.06,111.05 v 16.93 c 0,45.7 26.46,67.54 65.06,67.54 43.45,0 64.93,-23 64.93,-70.03 v -71.18 h 125.49 V 7788 c 0,118.21 -54.25,185.75 -191.52,185.75 -133.87,0 -192.98,-78.46 -192.98,-179.81 v -27.67 c 0,-94.06 36.17,-141.15 114.45,-218.27 l 80.71,-80.83 c 42.37,-39.81 61.54,-68.69 61.54,-115.72 v -31.43 c 0,-43.4 -19.17,-72.34 -62.62,-72.34 -46.98,0 -67.49,26.58 -67.49,72.34 v 112.26 h -127.8" /><path
         id="path38"
         style="fill:#ffffff;fill-opacity:1;fill-rule:nonzero;stroke:none"
         d="m 4799.31,7146.46 v 705.43 h 113.24 v 112.15 h -365.2 v -112.15 h 113.12 v -705.43 h 138.84" /><path
         id="path40"
         style="fill:#ffffff;fill-opacity:1;fill-rule:nonzero;stroke:none"
         d="m 4987.44,7146.46 h 137.387 v 817.578 H 4987.44 Z" /><path
         id="path42"
         style="fill:#ffffff;fill-opacity:1;fill-rule:nonzero;stroke:none"
         d="m 5614.2,7672.21 v 96.55 c 0,120.58 -42.24,204.99 -194.07,204.99 -144.68,0 -205,-92.85 -205,-220.71 v -395.59 c 0,-126.7 60.32,-220.64 205,-220.64 145.88,0 194.07,86.78 194.07,203.71 v 141.09 h -125.38 v -150.68 c 0,-48.3 -16.87,-79.67 -66.27,-79.67 -49.51,0 -69.91,34.95 -69.91,84.47 v 438.98 c 0,49.4 20.4,84.47 69.91,84.47 49.4,0 66.27,-28.95 66.27,-79.62 v -107.35 h 125.38" /><path
         id="path44"
         style="fill:#ffffff;fill-opacity:1;fill-rule:nonzero;stroke:none"
         d="m 6027.71,7851.89 v 112.15 H 5699.88 V 7146.4 h 327.83 v 112.14 h -190.43 v 248.44 h 136.18 v 111.05 h -136.18 v 233.86 h 190.43" /><path
         id="path46"
         style="fill:#ffffff;fill-opacity:1;fill-rule:nonzero;stroke:none"
         d="m 769.375,8795.39 v -353.84 h 3.031 l 237.884,246.8 h 3.03 V 7145.01 h 338.99 V 9161.24 H 1081.78 L 769.375,8795.39" /><path
         id="path48"
         style="fill:#ffffff;fill-opacity:1;fill-rule:nonzero;stroke:none"
         d="m 2202.88,7599.94 c 0,-127.86 -47.57,-202.19 -163.48,-202.19 -113,0 -157.54,77.25 -157.54,202.19 v 368.71 c 5.83,112.99 53.4,184.41 160.57,184.41 115.79,0 160.45,-71.42 160.45,-202.25 z m 336.08,29.68 v 297.4 c 0,330.05 -130.84,496.69 -374.67,496.69 -142.86,0 -229.03,-65.41 -279.52,-163.6 h -2.91 v 434.18 c 0,121.98 38.47,208.21 160.57,208.21 121.86,0 157.54,-71.37 157.54,-196.2 v -134.04 h 309.25 v 107.16 c 0,297.41 -98.06,505.49 -472.86,505.49 -356.83,0 -490.7,-228.96 -490.7,-544.2 v -981.3 c 0,-312.21 136.91,-538.25 493.74,-538.25 359.74,0 499.56,196.25 499.56,508.46" /><path
         id="path50"
         style="fill:#ffffff;fill-opacity:1;fill-rule:nonzero;stroke:none"
         d="m 6999.04,6590.4 c 0,0 -115.24,-153.07 -81.74,-302.17 33.74,-149.19 203.78,-237.91 203.78,-237.91 0,0 115.3,153.07 81.68,302.17 -33.62,149.25 -203.72,237.91 -203.72,237.91" /><path
         id="path52"
         style="fill:#ffffff;fill-opacity:1;fill-rule:nonzero;stroke:none"
         d="m 6811.22,5716.3 c 0,0 115.3,153.16 81.68,302.32 -33.74,149.22 -203.72,237.72 -203.72,237.72 0,0 -115.36,-152.92 -81.86,-302.14 33.8,-149.09 203.9,-237.9 203.9,-237.9" /><path
         id="path54"
         style="fill:#ffffff;fill-opacity:1;fill-rule:nonzero;stroke:none"
         d="m 7284.93,5880.23 c 0,0 121.74,-122.76 260.34,-110.41 138.61,12.29 241.35,154.92 241.35,154.92 0,0 -121.55,122.76 -260.29,110.47 -138.6,-12.34 -241.4,-154.98 -241.4,-154.98" /><path
         id="path56"
         style="fill:#ffffff;fill-opacity:1;fill-rule:nonzero;stroke:none"
         d="m 7484.35,6535.9 c -112.76,-114.44 -96.86,-316.91 -96.86,-316.91 0,0 198.81,-17.23 311.8,97.06 112.75,114.33 96.85,316.83 96.85,316.83 0,0 -198.92,17.23 -311.79,-96.98" /><path
         id="path58"
         style="fill:#ffffff;fill-opacity:1;fill-rule:nonzero;stroke:none"
         d="m 7235.53,5425.2 c 138.12,-16.35 267.99,102.25 267.99,102.25 0,0 -94.06,145.03 -232.06,161.36 -138.24,16.23 -268.11,-102.38 -268.11,-102.38 0,0 94.06,-144.94 232.18,-161.23" /><path
         id="path60"
         style="fill:#ffffff;fill-opacity:1;fill-rule:nonzero;stroke:none"
         d="M 7358.91,3025.81 H 6326.52 c -80.77,0 -146.25,-65.17 -146.25,-145.94 0,-80.65 65.48,-146.12 146.25,-146.12 h 1032.39 c 80.65,0 146,65.47 146,146.12 0,80.77 -65.35,145.94 -146,145.94" /><path
         id="path62"
         style="fill:#ffffff;fill-opacity:1;fill-rule:nonzero;stroke:none"
         d="M 7358.91,1416.03 H 6326.52 c -80.77,0 -146.25,-65.24 -146.25,-146 0,-80.59 65.48,-146.07 146.25,-146.07 h 1032.39 c 80.65,0 146,65.48 146,146.07 0,80.76 -65.35,146 -146,146" /><path
         id="path64"
         style="fill:#ffffff;fill-opacity:1;fill-rule:nonzero;stroke:none"
         d="m 2715.92,3380.35 c -24.27,7.53 -48.31,14.11 -71.67,18.48 0,0 26.46,-8.23 71.67,-18.48" /><path
         id="path66"
         style="fill:#ffffff;fill-opacity:1;fill-rule:nonzero;stroke:none"
         d="m 4389.14,2748.49 c 68.03,-1.15 136.3,0.88 204.69,5.53 v -539.35 l -204.69,4.67 z m 2931.72,-116.72 h -956.65 c -45.88,0 -83.14,-37.32 -83.14,-83.1 v -289.7 l -624.51,-68.63 -912.35,20.87 v 557.25 c 121.19,15.5 242.56,39.65 363.02,73.64 878.24,247.8 1069.77,973.86 1050.65,1476.22 -19.12,511.62 144.61,710.29 379.89,798.65 67.36,25.3 133.99,41.29 194.98,51.67 2.61,-125.68 28.1,-271.74 84.3,-445.84 20.87,1.15 41.62,2.92 62.26,5.16 -59.36,178.07 -84.66,324.53 -86.05,449.44 121.55,14.36 208.27,6.25 208.27,6.25 0,0 -82.17,44.12 -198.2,141.15 39.44,242.28 183.75,391.04 332.5,543.14 81.74,83.77 166.22,170.22 232.73,273.26 l -51.83,33.43 c -62.93,-97.91 -145.59,-182.04 -225.15,-263.55 -145.03,-148.37 -291.41,-299.98 -340.99,-540.49 -47.15,42.54 -98.13,92.84 -150.31,151.4 -216.59,242.79 -495.38,64.44 -892.93,-305.72 -397.79,-369.95 -897.91,-382.63 -1386.42,117.15 -644.48,659.77 -1206.67,656.01 -1592.21,618.56 263.74,-112.32 355.98,-358.75 489.49,-985.12 139.88,-657.21 492.71,-954.56 975.34,-995.61 -268.47,-94.85 -281.76,-246.34 -641.39,-494.74 -280.91,-193.8 -676.03,-132.54 -836.24,-96.16 294.08,-91.66 642.42,-400.14 954.1,-507.49 181.44,-62.44 372.79,-101.07 568.74,-116.6 V 2222.8 l -1634.5,37.32 v -372.17 l 3052.3,69.85 624.51,-68.75 v -289.46 c 0,-45.81 37.26,-83.26 83.14,-83.26 h 956.65 c 45.94,0 83.25,37.45 83.25,83.26 v 949.08 c 0,45.78 -37.31,83.1 -83.25,83.1" /><path
         id="path68"
         style="fill:#ffffff;fill-opacity:1;fill-rule:nonzero;stroke:none"
         d="m 2514.93,1949.48 c 0,-78.46 -54.74,-142.11 -122.22,-142.11 h -73.55 c -67.37,0 -122.29,63.65 -122.29,142.11 v 257.24 c 0,78.58 54.92,142.12 122.29,142.12 h 73.55 c 67.48,0 122.22,-63.54 122.22,-142.12 v -257.24" /></g></g></svg>